<?xml version="1.0" encoding="UTF-8"?>
<svg version="1.1" viewBox="0 0 1578 1420" width="1578" height="1420" xmlns="http://www.w3.org/2000/svg">
<path transform="translate(0)" d="m0 0h1578v1420h-1578z" fill="#171719"/>
<path transform="translate(760,233)" d="m0 0 7 1 6 5 1 2v143l9 2 6 4 5 5 6 12 3 13 1 12v17l-2 30-8 78-2 32v29l2 23 10 3 7 6 4 8 1 9-1 2 9 3 43 21 19 9 5 6v117l118-59h2v-2l-6-2-20-10-4-5v-143h-146l-8-3-5-5-3-6v-26l4-8 6-5 3-1h149v-251l4-5 2-1h7l23 11 254 127 5 6v448l-4 5-8 1-51-25-52-26v286l-3 6-5 4-364 182-7 1-7-3-4-4-2-5v-145h-156l-6-3-6-7-1-3v-27l3-6 7-6 2-1h157v-177l-6-2-41-20-23-11-5-5-1-2v-268l5-6 2-1h9l50 24 16 7 7-5 3-1-1-21v-37l2-30 9-90 1-23-1-20-4-16-4-6-6-5-7-2v127l-4 6-19 10-184 92h-9l-6-5-1-4v-277l4-6 122-61 19-10 60-30z" fill="#E6B8E0"/>
<path transform="translate(489,371)" d="m0 0h10l6 5 1 5 1 350 32-16 23-11 47-23 3-1h7l5 3 3 3 1 296-1 94-5 6-45 22-17 8-16 8-33 16-16 8-25 12-16 8-23 11-16 8-25 12-9 5-12 5-36 18-23 11-51 25-11 5h-8l-7-8v-385l3-7 8-5 53-26 10-5v-250l-7-8v-3l7-8 1-8h-186l-8-4-5-6-1-3v-28l3-6 7-6 3-1 186-1v-26l3-7 3-3 39-20 76-38 19-10z" fill="#D3E7EE"/>
<path transform="translate(1143,707)" d="m0 0h7l4 4v415l-6 5-360 180-6 1-5-3-1-2v-145l25-1 8-5 3-6v-29l-4-7-7-4-18-1-7-1v-215l5-5z" fill="#19191B"/>
<path transform="translate(987,293)" d="m0 0h7l23 11 254 127 5 6v448l-4 5-8 1-51-25-38-19-14-8v-212l-2-7-5-2-116-58h-2l-3-5-8-4-44-1v-251l4-5z" fill="#D78FCE"/>
<path transform="translate(489,371)" d="m0 0h10l6 5 1 5 1 350 32-16 23-11 47-23 3-1h7l5 3 3 3v4l-23 11-113 55-19 9-3 1v41h-1v-40l-26 13-23 11-47 23-35 17-29 14h-1l-1-16 1-1v-250l-7-8v-3l7-8 1-8h-186l-8-4-5-6-1-3v-28l3-6 7-6 3-1 186-1v-26l3-7 3-3 39-20 76-38 19-10z" fill="#D78FCE"/>
<path transform="translate(760,233)" d="m0 0 7 1 6 5 1 2v143l9 2 6 4 5 5 6 12 3 13 1 12v17l-2 30-8 78-2 32v29l2 23 10 3 7 6 4 8 1 9-3 10-7 8-10 4h-9l-3-1 2-10 4 2 5-1 10-10v-4h-5l-3 4h-2l-1-18-4-1-2 5-6-2-7-3 2-4 8-4-1-21v-37l2-30 9-90 1-23-1-20-4-16-4-6-6-5-7-2v127l-4 6-19 10-184 92h-9l-6-5-1-4v-277l4-6 122-61 19-10 60-30z" fill="#80BDE4"/>
<path transform="translate(700,617)" d="m0 0h9l50 24 16 8 13 6 1-5 4-1 2 2v18h2l2-4 1-1h5l1 5-12 12-5-1-3-2-2 10h12l10-4 6-7 3-8 9 3 43 21 19 9 5 6v118l-114 57-5 5-2 5-1 39-6-2-41-20-23-11-5-5-1-2v-268l5-6z" fill="#B39BDE"/>
<path transform="translate(507,917)" d="m0 0h22l12 4 7 6 1 2v14l-1 1v9l1 2 1 10v24l-5 16-5 8h-2l-1 4-9 6-5 2-13 3-4 2h-3v2h-2l1 10 4 8 4 2v2l27 9 8 4v2l4 1 2 2v3h2l2 5 2 14v18l2 1-48 23-16 8-25 12-16 8-23 11-16 8-25 12-10 5v-258l1 2 9-4 8-2h19l15 4 6 2h16l10-6 15-12 5-1v-2l14-5z" fill="#CDE9E7"/>
<path transform="translate(376,1007)" d="m0 0h2v194l-115 56-12 6h-3v-196l27-13 13-6h3l1 10 1 2 5 1 23-11 8-5 5-8 2-11 24-11z" fill="#58B8B3"/>
<path transform="translate(1143,707)" d="m0 0h7l4 4v125l-19-9-32-16h-5l-1-3-4-2 1 5h2v2l-8 3v-2l2-1 1-8-3-1-19-10-40-20-6 1-130 65h-2v65l4-1 1 1v8l-4 2-1 10 4-1 1 1v9l-3 4h-2l1 10 1 1v10l3 1-5 2 1 10 1 1v10l3-1v2l-6 3-2-1 2-2v-6l-5 5h-2l1 4h2v2l-7 3v-2h2l-1-5-4-1v3l-3 1-1 11-4 2 2-3 1-9-2-1 2-7-7-1-2 2h-4v-7l-5-1-1 2 3 3h-4l-2-1 1-6-8-4-8-1-2 2-4-1 1-6-46-22v168h-7v-215l5-5z" fill="#3F3443"/>
<path transform="translate(1142,700)" d="m0 0h9l7 4 3 6 1 130-1 286-3 6-5 4-364 182-7 1-7-3-4-4-2-5v-145h-156l-6-3-6-7-1-3v-27l3-6 7-6 2-1h157v-216l3-7 9-6 358-179zm1 7-364 182-3 4v215l7 1 18 1 7 4 4 7v29l-4 7-7 4-25 1v145l3 4 6 1 23-11 342-171 4-4v-415l-4-4z" fill="#4EA0A7"/>
<path transform="translate(735,320)" d="m0 0 6 1 3 4v163l-5 4-112 56-6 1-5-4v-164l3-3z" fill="#AED4ED"/>
<path transform="translate(809,246)" d="m0 0 7 1 34 16 9 4 37 17 3 4 1 87 6 1v3l-6-1v9l5 2 44 20 4 4v105l-4 5-2 1h-6l-32-15-33-15-17-8-3-5v-98l-9-3-32-15-10-5-3-5v-103l4-5z" fill="#58B8B3"/>
<path transform="translate(306,845)" d="m0 0h1l1 58 3 3 10-4 19-10 22-11h1l1 38 24-12 23-11 56-28h1v28l-19 10-40 20-23 11-6 3h-2v64l-34 16-8 3-1-7-1-3h-9l-19 10-8 5-5 6-2 10-16 8-24 11h-3v-185l4-6 19-10z" fill="#58B8B3"/>
<path transform="translate(418,449)" d="m0 0 5 1 2 2v7l-1 2 16 31 12 22 14 27 8 15 6 3 1 6-3 4h-2l1 177 29-14 19-10 45-22 35-17 7-3h7l5 3 3 3v4l-23 11-113 55-19 9-3 1v41h-1v-40l-26 13-23 11-47 23-35 17-29 14h-1l-1-16 16-8 24-11 16-8 1-42 1-136 2 1v127l-1 49 10-5 1-171-3-1-1-7 3-3 9-2 23-11 2-5 2-1h6l3 4-1 5-3 3v169l8-4h2v-171l-4-2-1-1v-7l3-2h7l24-12 3-5 7-1 3 3v6l-3 3-1 133-1 37 10-5 1-176 1-3-4-1-2-2 1-7 1-3-12-23-12-22-14-27-12-22-3-1-2 9-19 56-15 43-13 38-1 6 1 2-6-2 2-2 12-36 19-56 15-43 5-15-2-3v-6z" fill="#89D1D4"/>
<path transform="translate(509,787)" d="m0 0h7l13 3 11 1 12 3 11 1 10 3 12 1 13 3 15 2 11 2 3 1v172l-10 5h-2l-2-6-2-2h-7l-19 10h-3v2l-5 5-3 7-1 7-11 6h-2v-163l-23 12-64 32h-2v-52l16-9h2l2-4 4-7 1-8 7-5 2-4 1-16z" fill="#58B8B3"/>
<path transform="translate(817,715)" d="m0 0 9 2 5 6 1 8-3 8-2 2 4-1h7l6 3 4 5 1 9-3 6-5 4-2 1 5 5 2 7-2 7-6 4h-8-3v10l-4 5-2 1-9-1-5-4v-2h-2l-1 14 5 5 16 9 8 8 5 10-3 3-19 9-13 8-6 3-6 7-15 8-5 5-1 4-1 39-6-2-41-20v-2l-6-2-8-4 2-21 6-21 8-18 9-12 8-7 10-5 13-3 4-5 1-8-1-5-5-2-13-8-6-5-7-10-4-11v-13l4-11 7-9 9-6 10-3h15l12 3 9 5 4 4 2-8 4-5z" fill="#DBD7EC"/>
<path transform="translate(466,767)" d="m0 0h2v41l-14 8-4 5-2 7v18l3 3h6l12-6v53h-1l-1-27-76 38-23 11-5 2-1-38-50 25-4-2-1-2v-58l15-8 23-11 47-23 35-17z" fill="#6BCCCD"/>
<path transform="translate(1178,424)" d="m0 0 6 1 54 27 3 4v179l-4 5-2 1-9-1-34-17-20-11-2-3v-179l5-5z" fill="#E7B9E0"/>
<path transform="translate(1016,344)" d="m0 0h8l110 55 19 10 6 4 2 2 1 4v68l-3 7-4 3h-7l-134-67-3-3-1-3v-74l4-5z" fill="#E7B9E0"/>
<path transform="translate(307,496)" d="m0 0 39 1 6 3 6 7 1 2v29l-3 6-6 5-5 2-18 1-3 3h-2v-4h-200l-8-4-5-6-1-3v-28l3-6 7-6 3-1z" fill="#B39BDE"/>
<path transform="translate(418,461)" d="m0 0 4 1 36 68 14 26-2 5v5l5 3-1 179-9 5h-2v-37l1-133 3-3v-6l-2-2-7 1-3 5-24 12h-7l-2 1v7l4 3v171l-11 5v-170l4-5-1-5-1-1h-8l-2 6-25 12-9 1v7l3 3v171l-9 5h-2v-176l-6-4-1-5 3-4 7 2-1-3 12-36 16-47 15-43z" fill="#F6F6F7"/>
<path transform="translate(1221,953)" d="m0 0 8 1 124 62 5 7-1 9-7 6-23 11-100 50h-7l-5-3-3-8v-125l3-6 3-3z" fill="#B39BDE"/>
<path transform="translate(685,182)" d="m0 0h9l6 4 4 6v48l-3 6-6 5-134 67-3 1h-7l-7-4-4-7v-48l5-8z" fill="#F5F6F7"/>
<path transform="translate(850,110)" d="m0 0 8 1 35 16 37 17 7 3 5 6v102l-3 5-4 2-8-1-41-19-35-16-6-5-1-2v-103l4-5z" fill="#58B8B3"/>
<path transform="translate(381,954)" d="m0 0 2 4v3l12-4 6-1h15l22 7 16 2 3 1v2l-8 3h-42l-10 2-8 4-1 2h-2l7 15v2l8-5 8-3h33l17-1-5 6-7 4-4 1-20 2-9 2-12 6-9 8v21l1-3 7-6 10-7 4-3 10-3 1-1 23-1 1-1 12-2v-2l4-1 2 3 3 17v19l-3 8-2 5-8 7-5 6-6 4-4 2v2l-11 9-7 8h-2l-2 5-5 12-3 15-1 10-1 45-19 10-11 5z" fill="#59B8B3"/>
<path transform="translate(624,690)" d="m0 0h3v117h-6l-12-3-11-1-13-3-12-1-10-3-11-1-12-3-11-1-13-3h-7l-3 1v16l-4 6-6 3-1-11-1-3-7-1-14 7h-2v-41l46-23 23-11 47-23 35-17z" fill="#64C2CC"/>
<path transform="translate(1154,836)" d="m0 0 8 3-1 287-3 6-5 4-364 182-7 1-7-3-4-4-2-5v-145h-156l-6-3-6-7-1-3v-20h21l1 4-3 10h3l1-3h7l1 3 4 1-4-10v-4h6v15l4-1 1-9 4-1v11l4-1v-10l-1-3h6v14l-1 3 2 1h8l3-1-2-5-8-1v-2l7-2 4-2 2 7h9v-2h-6v-2h9l-2-7 4-1 1 13h7l1-2 2 2 11-1-1-1-1-10h12l1 8 3 3h8l3-2 2-8 3 1 1 8 1 1h5l3-2v3h4v-11h2l2 10h6l2-1v2h4v-10h3l1 9h10l2-3 1-6h2v11l4-1 1-9 11-1 12 1v15l-4 7-8 5h-25l1 145 2 3 6 1 23-11 342-171 3-3z" fill="#57BAA8"/>
<path transform="translate(832,550)" d="m0 0h149v22l-6 1v17h10l2-1v-5l-8-1-1-2 7-1 2-1 2 1 2 5h8l4 1v-2h2v2h3l5 5 20 5v3l-7 4-45 1h-146l-8-3-5-5-3-6v-26l4-8 6-5z" fill="#6296AF"/>
<path transform="translate(987,293)" d="m0 0h7l23 11 254 127 5 6v448l-4 5-8 1-1-448-4-4-276-138-1-4z" fill="#E5B7DF"/>
<path transform="translate(555,855)" d="m0 0h2v239h-1l-3-19h-2l-3-5-3-1v-2l-5-1-7-3-19-7-4-2-1-2-4-2-4-8v-10h2v-2l7-3 16-4 8-5 3-1 1-4 4-4 5-12 2-8v-24l-1-10-1-2v-9l1-1v-14l-4-5-8-4-7-2h-22l-13 2-10 3v2l-8 4-13 11-9 5h-16l-16-5-5-1h-19l-11 3-6 2 1-3 170-85z" fill="#5AB9B4"/>
<path transform="translate(1151,710)" d="m0 0 3 1v125l-19-9-32-16h-5l-1-3-4-2 1 5h2v2l-8 3v-2l2-1 1-8-3-1-19-10-42-21 4-3z" fill="#413943"/>
<path transform="translate(760,233)" d="m0 0 7 1 6 5v4l-202 101-3 3-1 3-1 277h-8l-6-5-1-4v-277l4-6 122-61 19-10 60-30z" fill="#ACD1EC"/>
<path transform="translate(981,604)" d="m0 0h29l1 130 1 5 10-4 29-14 21-9 12-6 15-5 15-4 11-1h9l9 2 1 2-25 12-106 53-6-2-22-11-4-5z" fill="#D78FCE"/>
<path transform="translate(303,830)" d="m0 0h4v15l-19 10-29 14-8 5-2 4v186l-1 2 2 1h-2v197h-8l-7-8v-385l3-7 8-5 53-26z" fill="#81C6C3"/>
<path transform="translate(861,244)" d="m0 0 6 1v2l9 2v2l6 1v2h6l3 3 4 1 2 1v2l9 2v2l3-1 1 2 8 2 3 3 6 1 1 2 2-1v3h6l3 2v2h6v2h2v3h2l1 5h2v13l1 4h-2l1 13 1 10h-2l1 10v9l1 4h-2l2 10h-2l1 13 1 10h-2v6l-3 2h-7l-2 1v-2h-3v-3h-6l-3-2v-2l-12-3-3-3-6-1v-3h-6l-1-1-1-87-4-4-35-16-4-3h2v-11l-1-2 3-7z" fill="#18181A"/>
<path transform="translate(1095,488)" d="m0 0h9l52 26 5 5 1 4v68l-3 7-4 3h-7l-54-27-3-3-1-3v-74z" fill="#E7B9E0"/>
<path transform="translate(1016,448)" d="m0 0h8l52 26 5 5 1 4v69l-3 6-4 3h-7l-54-27-4-6v-74l4-5z" fill="#E7B9E0"/>
<path transform="translate(1178,631)" d="m0 0 8 2 50 25 5 5v76l-4 5-2 1-9-1-24-12-19-10-10-6-3-4v-75l5-5z" fill="#E7B9E0"/>
<path transform="translate(407,603)" d="m0 0 6 4v171l-21 10-14 7v-170l5-3v-7z" fill="#D78FCE"/>
<path transform="translate(734,315)" d="m0 0 8 1 6 5 1 3v64l15-4h12l9 3 7 5 6 10 4 13 2 17v17l-2 30-8 78-2 32v29l2 23 10 3 7 6 4 8 1 9-3 10-7 8-10 4h-9l-3-1 2-10 4 2 5-1 10-10v-4h-5l-3 4h-2l-1-18-4-1-2 5-6-2-7-3 2-4 8-4-1-21v-37l2-30 9-90 1-23-1-20-4-16-4-6-6-5-7-2h-9l-13 3h-3v94l-5 6-116 58-7 1-6-3-4-5v-165l4-6 19-10 96-48zm1 5-118 59-1 2v164l5 4 6-1 114-57 3-3v-163l-5-5z" fill="#6BCCCC"/>
<path transform="translate(456,579)" d="m0 0 6 4v141l-1 31-32 15h-1v-170l3-2v-7z" fill="#D78FCE"/>
<path transform="translate(625,982)" d="m0 0h2v94l-5 6-45 22-15 7h-2v-94l12-7h1l2 10 2 2h6l19-10 6-4 6-9 1-11z" fill="#58B8B3"/>
<path transform="translate(1176,736)" d="m0 0h8l52 26 5 5v76l-4 5-2 1-9-1-13-7-19-10-16-8-1-67-1-10-5-3 2-5z" fill="#E7B9E0"/>
<path transform="translate(1142,700)" d="m0 0h9l7 4 3 6v129l-7-3-1-125-3-3h-7l-364 182-2 3-1 210h-7v-210l3-7 9-6 358-179z" fill="#90D5D8"/>
<path transform="translate(600,1129)" d="m0 0h21l1 4-3 10h3l1-3h7l1 3 4 1-4-10v-4h6v15l4-1 1-9 4-1v11l4-1v-10l-1-3h6v14l-1 3 2 1h8l3-1-2-5-8-1v-2l7-2 4-2 2 7h9v-2h-6v-2h9l-2-7 4-1 1 13h7l1-2 2 2 11-1-1-1-1-10h12l1 8 3 3h8l3-2 2-8 3 1 1 8 1 1h5l3-2v3h4v-11h2l2 10h6l2-1v2h4v-10h3l1 9h10l2-3 1-6h2v11l4-1 1-9 11-1 12 1v15l-4 7-8 5h-25v6h-7v-6h-156l-6-3-6-7-1-3z" fill="#4EA59D"/>
<path transform="translate(809,246)" d="m0 0 7 1 34 16 9 4 37 17 3 4 1 87 6 1v3l-6-1v9l5 2 44 20 4 4v105l-4 5-2 1h-6v-100l-2-5-3-3-33-15-9-3h-7l1-5-5-1-18-8-9-2 1-6 4-3 7-1 20 9-1-83-3-6-16-8-35-16-31-14 2-5z" fill="#81C9C6"/>
<path transform="translate(839,866)" d="m0 0h1v42l-1 7v5l1 1 1 10h-2v8l1 1 1 11-3 7 2 8-2 1-5 1-4 1-1-5 1-2-46-22v-39l3-7 9-6z" fill="#3D3E45"/>
<path transform="translate(1143,707)" d="m0 0h7l3 3-362 181-5 5-2 5-1 207h-7v-215l5-5z" fill="#5E5763"/>
<path transform="translate(361,818)" d="m0 0 4 1v64l1 33 17-8 19-10 10-5h4v-2l8-4 9-2-4 3-38 19-23 11-5 2-1-38-50 25-4-2-1-2v-58l15-8 23-11z" fill="#64C2CC"/>
<path transform="translate(431,511)" d="m0 0h6l3 2v9l12 23 6 11 6 4v6l-3 3h-6l-3-2-62 31h-3l-2-4 2-9 17-51v-10l2-2h8l14-7z" fill="#D78FCE"/>
<path transform="translate(415,792)" d="m0 0 3 1 1 9h-2l-1-3-1 79-1 2-8 1v3l-19 9-8 4-3-1v-42l-1-42 19-10z" fill="#64C2CC"/>
<path transform="translate(308,593)" d="m0 0 5 3 9 8v195l-9 6-5 1-1-18v-185z" fill="#E3B7DF"/>
<path transform="translate(876,412)" d="m0 0 5 1 33 15 8 5 4 8v43l-3 3-9-1-36-17-4-5-2-4v-44z" fill="#F4F5F7"/>
<path transform="translate(1178,424)" d="m0 0 6 1 54 27 3 4v179l-4 5-2 1h-6l-1-178-4-4-54-27 2-5z" fill="#EFCDE9"/>
<path transform="translate(1053,759)" d="m0 0 15 8 80 40 6 2v27l-19-9-32-16h-5l-1-3-4-2 1 5h2v2l-8 3v-2l2-1 1-8-3-1-19-10-42-21 4-3z" fill="#3E3141"/>
<path transform="translate(863,150)" d="m0 0h5l14 7 22 10 7 7 1 4v42l-3 5-7-1-36-17-6-8v-44z" fill="#F4F6F7"/>
<path transform="translate(466,767)" d="m0 0h2v41l-14 8-4 5-2 7v18l3 3h6l4-1v6l-17 9h-2l-1 3-11 6h-3l-1-2v-20l-1-46-3-3 2-13 15-8 23-11z" fill="#64C2CC"/>
<path transform="translate(467,382)" d="m0 0h4l4 11 1 2-96 48-19 10-34 17-3 4-2 11-4 1h-10l-1-16 3-7 3-3 39-20 76-38 19-10z" fill="#E4B7DF"/>
<path transform="translate(1016,344)" d="m0 0h8l110 55 19 10 6 4 2 2 1 4v68l-3 7-4 3h-5l-1-3v-68l-2-5-8-5-45-23-82-41-1-4z" fill="#EFCCE9"/>
<path transform="translate(821,287)" d="m0 0 7 1 33 15 7 8v47l-2 2h-7l-14-7-18-8-6-5-3-7v-44z" fill="#F5F6F7"/>
<path transform="translate(889,826)" d="m0 0h2v8l-112 56-2 3-1 210h-7v-210l3-7 9-6z" fill="#90D5D8"/>
<path transform="translate(850,110)" d="m0 0 8 1 35 16 37 17 7 3 5 6v102l-3 5-4 2h-5l-1-102-2-5-6-2-32-15-44-20 1-5z" fill="#7FC5C4"/>
<path transform="translate(803,432)" d="m0 0h1v17l-2 30-8 78-2 32v29l2 23 10 3 7 6 4 8 1 9-3 10-7 8-10 4h-9l-3-1 2-10 4 2 5-1 10-10v-4h-5l-3 4h-2l-1-18-4-1-2 5-6-2-7-3 2-4 8-4-1-21v-37l2-30 9-90 1-21 3-1 4 1z" fill="#57B6B1"/>
<path transform="translate(981,550)" d="m0 0h44l8 4 5 8 1 16v10l-3 8-3 1-20-5-5-4v-2h-3v-2h-2v2h-12l-2-2v-4l-10 2 8 1 1 1v5l-3 2h-10l-1-5v-11l3-3h4z" fill="#80BDE5"/>
<path transform="translate(830,834)" d="m0 0 5 5 3 8-16 8-18 10-8 5-5 6-15 8-5 5-1 4-1 39-6-2-29-14 3-1 6 3 3-8 3-10 5-7 7-14 6-7 11-9 9-7 21-12 20-9z" fill="#D2BDE3"/>
<path transform="translate(823,673)" d="m0 0 5 1 39 19 19 9 4 4v63l-6 2-5-1-3-5-1-48-2-5-5-2-29-14-21-10 2-6z" fill="#D1BCE3"/>
<path transform="translate(1052,568)" d="m0 0 6 1 98 49 5 5v46l-9-2-2-1-1-32-2-7-5-2-90-45-1-11z" fill="#EFCDE9"/>
<path transform="translate(734,315)" d="m0 0 8 1 6 5 1 3v64l15-4h12l9 3 7 5 6 10 4 13 1 5v23l-6-1-1-1-1-20-4-16-4-6-6-5-7-2h-9l-16 4-3 1v-2h-2l-1-70-4-4-6 1-114 57h-2l-2 11h-4v-9l4-6 19-10 96-48z" fill="#64C3CC"/>
<path transform="translate(1178,631)" d="m0 0 8 2 50 25 5 5v76l-4 5-2 1h-6l-1-75-1-3-5-2-50-25-1-4 4-4z" fill="#EFCDE9"/>
<path transform="translate(1095,488)" d="m0 0h9l52 26 5 5 1 4v68l-3 7-4 3-6-1v-70l-2-7-5-2-50-25-1-4z" fill="#EFCCE9"/>
<path transform="translate(1016,448)" d="m0 0h8l52 26 5 5 1 4v69l-3 6-4 3-6-1v-70l-2-7-5-2-50-25-1-4z" fill="#EFCCE9"/>
<path transform="translate(469,766)" d="m0 0h2v40l16-8 7 1 2 4v19l-5 8-5 5-28 14-1 1h-6l-4-4v-18l3-8 5-6 13-7z" fill="#F3F5F6"/>
<path transform="translate(325,1012)" d="m0 0h7l4 4v17l-4 10-7 6-24 12-5 1-4-2-1-2v-10l-27 12-12 6h-4l1-3 22-10 15-7 4-2 2-10 8-9 24-12z" fill="#F5F6F7"/>
<path transform="translate(924,400)" d="m0 0 1 3 13 1 12 6 3 3v105l-4 5-2 1h-6v-100l-2-5-3-3-18-8v-1l5-1-2-2z" fill="#81C9C6"/>
<path transform="translate(604,975)" d="m0 0h7l4 4v5l9-5h4v3l-12 6-1 11-6 9-5 4-20 10-1 1h-6l-4-5v-18l5-10 4-2v-2l21-10z" fill="#F3F5F7"/>
<path transform="translate(1206,748)" d="m0 0 6 2 24 12 5 5v76l-4 5-2 1h-6l-1-75-1-3-5-2-15-8-1-5z" fill="#EFCDE9"/>
<path transform="translate(860,607)" d="m0 0h2l7 8 7 6-6 7-29 29-20 7h-3l2-9 5-13z" fill="#7BB7DC"/>
<path transform="translate(640,1166)" d="m0 0 4 2 12 12-6 7-29 29-20 7-3-1 8-22z" fill="#57B6B2"/>
<path transform="translate(312,554)" d="m0 0 4 1 33 33 4 11-2 5-1 2h-2v3l-11-3-6-4-9-9-5-6-8-7-10-11 6-7z" fill="#B39BDE"/>
<path transform="translate(769,933)" d="m0 0 7 2v168h-7z" fill="#84CAC6"/>
<path transform="translate(418,449)" d="m0 0 5 1 2 2v7l-1 2 16 31 12 22 14 27 8 15 6 3 1 6-3 4h-2v178h-2v-175l1-3-4-1-2-2 1-7 1-3-12-23-12-22-14-27-12-22-3-1-2 9-19 56-15 43-13 38-1 6 1 2-6-2 2-2 12-36 19-56 15-43 5-15-2-3v-6z" fill="#65C4CA"/>
<path transform="translate(769,1168)" d="m0 0h7l1 139 2 3 4 2 2 7-9-2-5-5-2-5z" fill="#84CAC6"/>
<path transform="translate(700,617)" d="m0 0h9l50 24 9 4-2 5-4 8-5-1-22-11-23-11-17-8-1-5z" fill="#D1BCE3"/>
<path transform="translate(861,940)" d="m0 0h2v6h8l3 4v30h2v3h-3v2h2v2l-2 1-1 11-4 2 2-3 1-9-2-1 2-7-7-1-2 2h-4v-7l-5-1-1 2 3 3h-4l-2-1 1-6-11-5-1-4-1-5 3-7 2-2 4 1 1 2 3-6 2-2 4 1 1 6v2l4-1-1-8-2-1z" fill="#423A44"/>
<path transform="translate(470,842)" d="m0 0h1l1 55-90 45h-2l1 6-1 253h-2v-194l-14 7-26 12h-2l1-4 33-15 6-3h2v-64l28-14 23-11 38-19h2v-53z" fill="#DFEDEF"/>
<path transform="translate(1011,765)" d="m0 0 5 1 3 2v2l-126 63h-2v-8z" fill="#84CAC6"/>
<path transform="translate(411,595)" d="m0 0h6l3 4-1 5-3 3-1 169-2 1-1-170-5-3-22 11h-2l1 7-3 3h-3v169l-2 1v-170l-3-1-1-7 3-3 9-2 23-11 2-5z" fill="#67C8C9"/>
<path transform="translate(776,1174)" d="m0 0h7v138l-5-2-2-3z" fill="#5E5763"/>
<path transform="translate(1156,708)" d="m0 0h4l1 2v129l-7-3-1-127z" fill="#6ACCCC"/>
<path transform="translate(774,649)" d="m0 0 12 5 2 1 1-5 4-1 2 2v18h2l2-4 1-1h5l1 5-12 12-5-1-3-2-1 8-4 1-9-8-4-9v-9l4-10z" fill="#6ECDCE"/>
<path transform="translate(411,856)" d="m0 0h2v22l-16 8-19 9v-22l16-8z" fill="#58B8B3"/>
<path transform="translate(850,110)" d="m0 0 8 1 35 16 31 14 1 2-12-1-22-3-46-21 1-5z" fill="#6CCCCD"/>
<path transform="translate(431,511)" d="m0 0h6l3 2v9l12 23 6 11 6 4v6l-3 3h-6l-3-2-62 31h-3v-2l22-11 23-11 18-9h2l1-5 2-4-15-28-2-6-5 1-4-3v-2l-12 6h-2l1 5-3 4-6 1-20 60h-2l2-9 17-51v-10l2-2h8l14-7z" fill="#65C2CC"/>
<path transform="translate(764,384)" d="m0 0h12l9 3 7 5 6 10 4 13 1 5v23l-6-1-1-1-1-20-4-16-4-6-6-5-7-2h-9l-16 4-3 1v-2h-2v-7l7-1z" fill="#63C0CA"/>
<path transform="translate(1221,953)" d="m0 0 8 1 9 5-2 1-8 1-4 5-1 3-1 48-9-2v-55l5-6z" fill="#D2BDE3"/>
<path transform="translate(889,434)" d="m0 0 4 1 11 4 6 5 1 2v17l-4 3-18-6-2-2v-21z" fill="#F5F6F7"/>
<path transform="translate(445,839)" d="m0 0h2l1 7 3 3h6l4-1v6l-19 10-12 6h-2v-22z" fill="#58B8B3"/>
<path transform="translate(640,1174)" d="m0 0 4 1 4 4-2 4-28 28-10 3 3-11z" fill="#403943"/>
<path transform="translate(810,650)" d="m0 0 4 5 2 8-1 9-4 8-7 6-8 3h-9l-3-1 2-10 4 2 5-1 10-10v-5l2-1z" fill="#64C2CC"/>
<path transform="translate(860,615)" d="m0 0 7 6-6 7-24 24-10 3 3-10z" fill="#171719"/>
<path transform="translate(313,562)" d="m0 0 7 6 24 24 3 10-10-3-30-30z" fill="#413943"/>
<path transform="translate(308,872)" d="m0 0h7l5 3v19l2 4-1 5-10 4-3-2z" fill="#6ACCCC"/>
<path transform="translate(790,649)" d="m0 0 4 1 1 1v18h2l2-4 1-1h5l1 5-12 12-5-1-11-11 1-5 5 1 5 4v-19z" fill="#F4F5F7"/>
<path transform="translate(839,311)" d="m0 0 6 1 3 3 3 9 2 3v12l-6-1-10-6-3-5v-10l4-1z" fill="#7AD0D1"/>
<path transform="translate(864,372)" d="m0 0 6 1 18 8v12l-5-1-18-8-9-2 1-6 4-3z" fill="#6ACCCC"/>
<path transform="translate(508,947)" d="m0 0h8l5 5 1 2v9l-6 5h-9v-2h-3l-3-5v-7l1-2h2v-2z" fill="#5EBCB8"/>
<path transform="translate(374,765)" d="m0 0h2v31l-9 5h-2v-32z" fill="#DBD8ED"/>
<path transform="translate(423,741)" d="m0 0h3v31l-11 5v-33z" fill="#DBD8ED"/>
<path transform="translate(473,717)" d="m0 0h1v31l-9 5h-2v-32z" fill="#DBD8EC"/>
<path transform="translate(411,605)" d="m0 0h4v171l-2 1-1-170z" fill="#66C7C7"/>
<path transform="translate(460,571)" d="m0 0h5l3 3v6l-4 3-6-1-2-2-23 11-1 1v6l-4 3-1 57h-1v-57l-4-2-1-1v-7l3-2h7l24-12 3-5z" fill="#72CECF"/>
<path transform="translate(438,520)" d="m0 0 3 4 15 28 2 4 6 4v6l-3 3h-6l-3-2-62 31h-3v-2l22-11 23-11 18-9h2l1-5 2-4-15-28-3-7z" fill="#65C3CC"/>
<path transform="translate(417,460)" d="m0 0 1 4-21 62-15 43-13 38-1 6 1 2-6-2 2-2 12-36 19-56 15-43 5-15z" fill="#64C2CC"/>
<path transform="translate(809,246)" d="m0 0 7 1 28 13v1h-27l-15-7 2-5z" fill="#8DD0D6"/>
<path transform="translate(489,964)" d="m0 0 4 1-2 9v11l4 6 3 3 3 1v2l6 1h14l4-1v-2h3v-2h3l1 3-3 3h-2v2l-7 3h-14l-7-3v-2l-4-2-5-5-4-6v-17z" fill="#5FBDB9"/>
<path transform="translate(850,110)" d="m0 0 8 1 26 12v2h-14l-9-2-1 2-15-7 1-5z" fill="#8DD1D6"/>
<path transform="translate(557,1014)" d="m0 0h3v98h-3z" fill="#D0E5EF"/>
<path transform="translate(838,568)" d="m0 0h8l3 9 3-9h7v18h-4l-1-8-3 8h-4l-3-7-1 7h-5z" fill="#CCE4EC"/>
<path transform="translate(411,595)" d="m0 0h6l3 4-1 5-4 3v-2l-5 1-3-2-22 11h-2l1 7-3 3-5 1-4-4 1-7 11-3 23-11 2-5z" fill="#68C8CC"/>
<path transform="translate(823,260)" d="m0 0 23 1 8 4 1 12-5-1-30-14z" fill="#6BCCCD"/>
<path transform="translate(754,747)" d="m0 0 4 1v13l3 6 6 5 7 3h12l7-4 4-5 4 2-3 5-9 6-4 1h-12l-9-4-6-5-4-7-1-4v-10z" fill="#B39BDE"/>
<path transform="translate(663,224)" d="m0 0h3l-2 12-2 8h-2v2l-3 1-2-5v-4h-2l-1 12-5 2-4-9-1-8 5-2 2 10 3-13 4-2 2 6 1 4 3-13z" fill="#65BEBA"/>
<path transform="translate(633,239)" d="m0 0h6l2 3-1 9-3 5-5 4h-6l-2-3 1-10 6-7z" fill="#63BDBA"/>
<path transform="translate(567,269)" d="m0 0 11 2 5 2-1 4-10 13-3 4h-3v-24z" fill="#5CBAB5"/>
<path transform="translate(889,434)" d="m0 0 4 1 11 4 6 5 1 2v17l-4 3-18-6-2-2v-21zm1 3v20l11 5 7 1v-15l-5-1-2-6-4-2h-3v-2z" fill="#7ECED6"/>
<path transform="translate(769,732)" d="m0 0h7l5 5v8l-4 4-7 1-4-2-3-6 1-6z" fill="#B39BDE"/>
<path transform="translate(262,515)" d="m0 0h7l4 10 3-10h6v17h-3l-1-11-3 10-1 2h-4l-3-9-1 9h-4z" fill="#F2F1F6"/>
<path transform="translate(721,1127)" d="m0 0h7l4 4 1 6-2 5-3 2h-8l-4-4v-8z" fill="#D9EBED"/>
<path transform="translate(985,569)" d="m0 0h3v3h-2l1 7-2 2-6 1 8 1 1 1v5l-3 2h-10l-1-5v-11l3-3h7z" fill="#C4DEEA"/>
<path transform="translate(876,172)" d="m0 0 4 2 15 14 2 3-4 1-5-1-2 8-3-1-7-22z" fill="#6AC0BD"/>
<path transform="translate(744,1125)" d="m0 0h6v19h-4l-1-2-2 2h-5l-2-2v-8l2-3h6z" fill="#CAE5E7"/>
<path transform="translate(900,387)" d="m0 0 5 2 11 5 7 3-2 4-10 2-8-4-5-3z" fill="#81C8C5"/>
<path transform="translate(664,1128)" d="m0 0h3v2l-2 2 1 5-4 3h-5v2h8l2 2v4l-3 2h-8l-3-2 1-8v-7l4-2h5z" fill="#C4E2E3"/>
<path transform="translate(207,514)" d="m0 0h4v19l-5-1-1 1h-5l-3-3v-8h2v-2l6-1 1 2z" fill="#F1F0F5"/>
<path transform="translate(962,889)" d="m0 0 4 1-1 6-1 4 2 1-5 3-4-1-4 5-3 1-2-2v-7l3-5 4-1h3z" fill="#232226"/>
<path transform="translate(132,515)" d="m0 0h8l3 3v2l-4 1-1-1h-5v8l6 1v-3h-4v-3h8v10l-4-1-1 1-8-1-3-4v-7l3-5z" fill="#F0EFF5"/>
<path transform="translate(858,375)" d="m0 0 3 4 24 5h3v9l-5-1-18-8-9-2 1-6z" fill="#64C2CC"/>
<path transform="translate(962,572)" d="m0 0h7l3 3 1 5-3 5-1 1h-7l-4-4v-6z" fill="#C0DAE6"/>
<path transform="translate(624,1127)" d="m0 0h6l3 10 2 4v3l-5-1v-3h-7l-1 4-4-1 4-13z" fill="#CAE4E5"/>
<path transform="translate(864,572)" d="m0 0h8l3 3 1 11-6-1-1 1h-6l-1-1v-5l2-2 2-1h-4l1-4z" fill="#CAE5EB"/>
<path transform="translate(903,990)" d="m0 0 3 1-5 3 1 1h4v6l-4 4-4-1-1-1-4 6-4 1v-3l4-1-1-1-4-1 1-6 2-2h5l1 2 3-6z" fill="#3D6566"/>
<path transform="translate(893,139)" d="m0 0 13 1 14 2h6l10 4-3 3-13-2-6-1h-8l-13-6z" fill="#7DC9C7"/>
<path transform="translate(411,605)" d="m0 0h4v75l-2 2-1-75z" fill="#68C8CC"/>
<path transform="translate(474,840)" d="m0 0h2v25l-4 1 1 28h-2v-52z" fill="#7ACBD2"/>
<path transform="translate(992,572)" d="m0 0h7l3 4v7l2 1-1 2h-12l-2-2 1-5 7-1v-2l-8 1 1-4z" fill="#CBE2ED"/>
<path transform="translate(904,572)" d="m0 0h5v10h4v-10h5v14h-12l-2-3z" fill="#CEE4ED"/>
<path transform="translate(1e3 572)" d="m0 0 5 1 7-1 2 4v10h-5v-10l-3 1-1 9h-5z" fill="#D1E6EE"/>
<path transform="translate(774,1131)" d="m0 0 6 1 2 2v7l-2 3h-8l-3-3v-8z" fill="#D9EBED"/>
<path transform="translate(605,253)" d="m0 0h3v4l-6 3h-3v4l7-3-1 5-6 2v7l-3 3h-1v-20z" fill="#60BCB8"/>
<path transform="translate(768,905)" d="m0 0h1v27l-6-2-4-3h2l2-10 3-10z" fill="#B39BDE"/>
<path transform="translate(641,1167)" d="m0 0 4 2 11 11-1 2-7-1-5-6-4 1-4 4-4-1 2-4z" fill="#63C1CB"/>
<path transform="translate(450,565)" d="m0 0h2v2l-62 31h-3v-2l22-11 23-11z" fill="#64C3CC"/>
<path transform="translate(176,519)" d="m0 0h6l3 2v9h2v3h-5-2-6l-1-6 4-2h3v-3l-3 2h-4l2-4z" fill="#EDE9F3"/>
<path transform="translate(637,1131)" d="m0 0h4v2l3-2 5 1 2 2v10l-5 1v-11l-3 1-1 9-5 1z" fill="#C4E4E6"/>
<path transform="translate(923,572)" d="m0 0h8l2 3-2 2 2 2v5l-2 2h-8l-2-1 1-4 6 2v-2l-6-1-1-1v-5z" fill="#CAE1EC"/>
<path transform="translate(289,519)" d="m0 0h6l3 3v8h2v3h-5l-1-2-2 2h-5l-2-5 2-2 6-1v-3l-6 2v-4z" fill="#EDEAF3"/>
<path transform="translate(837,319)" d="m0 0 10 5 4 3v9l-6-2-8-5z" fill="#F4F6F6"/>
<path transform="translate(288,1045)" d="m0 0h2l1 3-27 12-12 6h-4l1-3 22-10 15-7z" fill="#D1E6ED"/>
<path transform="translate(376 1e3)" d="m0 0 1 3-5 3-25 12-9 4h-2l1-4 33-15z" fill="#D0E6ED"/>
<path transform="translate(671,1131)" d="m0 0h7l4 5v3h-9v2l6-1 2 2-2 2h-7l-4-4v-6h2z" fill="#C3E3E4"/>
<path transform="translate(613,249)" d="m0 0h2v14l6-3h2l-1 5-11 5-1-1v-18z" fill="#6AC0BC"/>
<path transform="translate(320,519)" d="m0 0h5l3 3v5h-8v3l7-1v3l-7 1-4-2-1-2v-7z" fill="#EDEAF4"/>
<path transform="translate(151,519)" d="m0 0h5l3 3v5h-8v3l7-1v3l-7 1-4-2-1-2v-7z" fill="#EDEAF4"/>
<path transform="translate(243,519)" d="m0 0h5l3 3v5h-8v3l8-1-1 3-7 1-5-4 1-7z" fill="#EEEBF4"/>
<path transform="translate(897,395)" d="m0 0 14 7 4-1v-1h6l4-2 12 6-3 1-9-2h-2v2l3 2h-10l-20-9z" fill="#6BCCCD"/>
<path transform="translate(1031,750)" d="m0 0 6 2-4 3-20 10-6-2 5-4 16-7z" fill="#B39BDE"/>
<path transform="translate(300,520)" d="m0 0 5 1 1 7h2l1-7 4-1-2 10-5 8h-7l1-3h4l-3-9z" fill="#F3F1F6"/>
<path transform="translate(943,568)" d="m0 0h5v14h9v4h-14z" fill="#D1E6EE"/>
<path transform="translate(696,1131)" d="m0 0 7 1 2 1v9l2 1-5 1-7 1-2-2 1-5 1-1h6v-3l-8 1 1-3z" fill="#CFE6E8"/>
<path transform="translate(859,269)" d="m0 0 7 1 16 8v1h-7l-14-2-3 1-1-6z" fill="#6CCBCD"/>
<path transform="translate(892,572)" d="m0 0h8l2 2v3l-8-1v6h4l1-2 3 1-1 4-1 1h-8l-3-4v-7z" fill="#C7E2EB"/>
<path transform="translate(753,1131)" d="m0 0h4l1 9h3l1-9h4v13l-5-1-1 1h-6l-1-1z" fill="#DCECEE"/>
<path transform="translate(460,571)" d="m0 0h5l3 3v6l-4 3-6-1-3-5 3-5z" fill="#75CDD1"/>
<path transform="translate(889,382)" d="m0 0 11 5-2 8-5 3-4-4z" fill="#90D5D8"/>
<path transform="translate(385,594)" d="m0 0 2 1v3h3l-1 7-3 2-6-1-2-3v-5l3-3z" fill="#77CED1"/>
<path transform="translate(229,519)" d="m0 0 5 1 1 1v11h-4v-9l-4 1-1 8h-4v-12h6z" fill="#F4F3F6"/>
<path transform="translate(744,365)" d="m0 0h5v22l-5 1z" fill="#6BCDCD"/>
<path transform="translate(974,581)" d="m0 0h3v2h10l1 1v5l-3 2h-10l-1-5z" fill="#C7DFEA"/>
<path transform="translate(896,436)" d="m0 0 10 4 5 6v17l-3-1v-14h-5l-2-6-7-3z" fill="#8BD1DA"/>
<path transform="translate(431,511)" d="m0 0h6l3 2v7l-4 3-5-1-2-2v-7z" fill="#7ACDD3"/>
<path transform="translate(418,449)" d="m0 0 5 1 2 2v7l-3 2-7-1-1-2v-6z" fill="#72CBD0"/>
<path transform="translate(645,233)" d="m0 0h2l2 10 4-2-1 9-5 2-4-9-1-8z" fill="#67BFBC"/>
<path transform="translate(411,595)" d="m0 0h6l3 4-1 5-4 3v-2l-5 1-2-2v-6z" fill="#7ACDD3"/>
<path transform="translate(361,612)" d="m0 0 9 3-1 7-3 1-1 2-6-4-1-5z" fill="#75CBD2"/>
<path transform="translate(842,949)" d="m0 0 4 1 1 6-2 5-3 3-4-1-1-5 3-7z" fill="#60BFBC"/>
<path transform="translate(509,952)" d="m0 0h6l2 2v7l-2 2-8-1-1-7h2z" fill="#C8E7E6"/>
<path transform="translate(776,1162)" d="m0 0h24v1h-17v11h-7z" fill="#3D3D44"/>
<path transform="translate(1083,805)" d="m0 0 3 1 1 7-3 5-2 2-4-1v-9z" fill="#539A99"/>
<path transform="translate(1033,1019)" d="m0 0 3 1 1 7-3 6-5 1-1-1v-9z" fill="#57A5A4"/>
<path transform="translate(852,944)" d="m0 0 4 1 1 6-2 5-3 3-4-1v-9z" fill="#538C8E"/>
<path transform="translate(943,875)" d="m0 0 3 1 1 6-3 7-5 1-1-1v-9z" fill="#61BFBD"/>
<path transform="translate(654,1140)" d="m0 0 11 2 2 2v4l-3 2h-8l-3-2z" fill="#C5E1E2"/>
<path transform="translate(853,1015)" d="m0 0 3 1 1 6-3 7-5 1-1-1v-9z" fill="#539998"/>
<path transform="translate(942,947)" d="m0 0h4l1 7-3 6-5 1-1-1v-8l2-4z" fill="#64C3C2"/>
<path transform="translate(832,1143)" d="m0 0 4 1 1 5-2 6-4 3-3-1v-9z" fill="#539899"/>
<path transform="translate(684,1125)" d="m0 0h5v17h2v2h-6l-1-2z" fill="#C1E3E6"/>
<path transform="translate(902,1132)" d="m0 0 4 1 1 6-3 6-5 1-1-1v-8z" fill="#457576"/>
<path transform="translate(679,216)" d="m0 0h3v19l-4 1-1-12-1 2h-2l1-5z" fill="#5EBAB6"/>
<path transform="translate(832,954)" d="m0 0 4 1v10l-4 4-4-1 1-6-1-4z" fill="#549798"/>
<path transform="translate(479,814)" d="m0 0h4l1 7-3 5-5 1-1-1v-7l2-4z" fill="#C9E1F0"/>
<path transform="translate(878,572)" d="m0 0h10v4l-4 1-1 9h-5z" fill="#CEE4EE"/>
<path transform="translate(882,1071)" d="m0 0 4 1v9l-3 4h-5v-9l2-4z" fill="#457A7B"/>
<path transform="translate(831,1026)" d="m0 0h5v10l-4 4-4-1 1-6-1-3z" fill="#427777"/>
<path transform="translate(845,904)" d="m0 0 1 2-2 6 2 1-1 5-4 3-3-1v-9l3-5z" fill="#B584BC"/>
<path transform="translate(1023,835)" d="m0 0 3 1v10l-4 4-4-1 1-6-1-2 3-5z" fill="#4E8F8F"/>
<path transform="translate(1073,810)" d="m0 0 3 1v10l-4 4-4-1 1-11z" fill="#4E8E8E"/>
<path transform="translate(1022,907)" d="m0 0h4v10l-3 4-5-1 1-6-1-2 2-4z" fill="#539A9A"/>
<path transform="translate(1071,882)" d="m0 0h5v11l-4 3-4-1 1-10z" fill="#395C5D"/>
<path transform="translate(854,1231)" d="m0 0h2l-2 8 2 1-1 5-3 2h-4l1-12z" fill="#9E75A5"/>
<path transform="translate(374,765)" d="m0 0h2v8l-11 4v-8z" fill="#DFEDEF"/>
<path transform="translate(473,717)" d="m0 0h1v8l-9 4h-2v-8z" fill="#DFEDEF"/>
<path transform="translate(423,741)" d="m0 0h3v7l-8 4h-3v-8z" fill="#DFEDEF"/>
<path transform="translate(785,1131)" d="m0 0h4l1 2 1-2h4v4h-5v9l-5 1z" fill="#BFE2E4"/>
<path transform="translate(189,514)" d="m0 0h4l1 15 2 1-1 3-6-1z" fill="#F5F4F7"/>
<path transform="translate(1015,1056)" d="m0 0 1 2-2 5-1 1 3 1-1 5-3 2h-4l1-12 3-3z" fill="#57A4A3"/>
<path transform="translate(769,736)" d="m0 0h6l2 2v6l-2 2-6-1-2-2 1-6z" fill="#DAD4EB"/>
<path transform="translate(953,965)" d="m0 0 3 1v2h-5v3l4-1 1 1-1 7-3 2-4-1v-8l3-5z" fill="#62C2BF"/>
<path transform="translate(844,924)" d="m0 0h2v14l-4 2-4-1v-6l3-3 2-1z" fill="#9C86BF"/>
<path transform="translate(902,1061)" d="m0 0 4 1v9l-4 4h-4l1-3 4 1v-3h-5l1-7z" fill="#447B7A"/>
<path transform="translate(922,1008)" d="m0 0 4 1v6l-2 3h-4v6h-2v-14z" fill="#AA77A9"/>
<path transform="translate(884,928)" d="m0 0h2v13l-4 3-4-1v-6l4-4h2z" fill="#5CA3A6"/>
<path transform="translate(1039,898)" d="m0 0 2 4 4-2 1 1v7l-3 3-5 1v-13z" fill="#4F9593"/>
<path transform="translate(903,899)" d="m0 0 3 1v6l-4 4h-1l-1 5h-2v-13z" fill="#509796"/>
<path transform="translate(879,177)" d="m0 0 8 6 5 6-5 1-2 5-2-3-4-13z" fill="#F0F4F5"/>
<path transform="translate(933,1144)" d="m0 0 3 1v6l-3 4h-3v5h-2v-13h3v-2z" fill="#8A658E"/>
<path transform="translate(982,927)" d="m0 0h4v10l-4 4-4-1 2-2 3-1-4-1-1-5z" fill="#427877"/>
<path transform="translate(893,924)" d="m0 0 3 1v9l-5 5-3-1v-2l5-1-1-1-4-1v-5z" fill="#56A0A0"/>
<path transform="translate(1e3 845)" d="m0 0 3 1v2h-5v3l4-1 1 1-1 7-5 2-2-2v-7l3-5z" fill="#559E9D"/>
<path transform="translate(839,313)" d="m0 0 6 2 2 2v4l-9-1-1 9-3-2v-10l4-1z" fill="#7FD1D3"/>
<path transform="translate(776,1097)" d="m0 0h7v11h-7z" fill="#3D3E45"/>
<path transform="translate(845,995)" d="m0 0h1v14h-3v2l-5-1 1-7 2-2h3v-5z" fill="#B1B0BC"/>
<path transform="translate(953,894)" d="m0 0 3 1v2h-4v2h4v6l-5 4-3-2v-7l3-5z" fill="#54A09F"/>
<path transform="translate(1039,827)" d="m0 0 2 3 4-1 1 1v6l-2 3-6 2v-13z" fill="#4F9594"/>
<path transform="translate(453,578)" d="m0 0h3v2l-23 11-1 1v5l-2-4-1-1h-6l1-3h7z" fill="#66C4CC"/>
<path transform="translate(1e3 1086)" d="m0 0h4v7l-3 3h-3v5h-2v-12z" fill="#529999"/>
<path transform="translate(1019,1050)" d="m0 0 2 3 4-1 1 1v6l-3 3-5 2v-13z" fill="#519796"/>
<path transform="translate(935,974)" d="m0 0h1v14l-4 2-4-1 1-7 2-2h3v-5z" fill="#427374"/>
<path transform="translate(1e3 917)" d="m0 0h4v2l-5 2 1 1h4l-1 7-3 2-4-1v-8z" fill="#467B7C"/>
<path transform="translate(934,903)" d="m0 0h2v13l-5 3-3-1 1-7 3-3h2z" fill="#3E6E6E"/>
<path transform="translate(885,999)" d="m0 0h1v13l-4 3-4-1 1-7 2-2h3v-5z" fill="#427374"/>
<path transform="translate(590,995)" d="m0 0 3 1-3 3v1l3 1-1 5-2 2h-5l-1-5 2-5z" fill="#90C4E8"/>
<path transform="translate(891,996)" d="m0 0h5v9l-4 5-4-1 2-2 3-1-1-1-4-1 1-6z" fill="#56A1A1"/>
<path transform="translate(981,856)" d="m0 0h5v9l-4 5-4-1 2-2 3-1v-2l-4 1-1-5z" fill="#549D9D"/>
<path transform="translate(865,965)" d="m0 0 1 2-2 6-3 2v3h2l1-3h2l-2 5-2 2h-4l1-13z" fill="#C18BC7"/>
<path transform="translate(1e3 572)" d="m0 0 7 1-2 13h-5z" fill="#CBE2EE"/>
<path transform="translate(722,1130)" d="m0 0h5l1 1v9l-6 1-1-1v-9z" fill="#54A9A3"/>
<path transform="translate(875,1197)" d="m0 0 1 2-2 6-4 1 1 3-1 2 4-1-1-3 3-1-1 5-5 3-2-1v-9l3-5z" fill="#BF88C2"/>
<path transform="translate(215,519)" d="m0 0h4v14h-5v-13z" fill="#E9E5F1"/>
<path transform="translate(689,1131)" d="m0 0 4 1v3l8-1v3l-7 2-2 5-1-2h-2z" fill="#57ADA6"/>
<path transform="translate(460,747)" d="m0 0h1v8l-9 4h-2l2-6h2l2-4z" fill="#B69DDE"/>
<path transform="translate(893,1093)" d="m0 0 3 1v6l-4 4-4-1v-6z" fill="#8A78AA"/>
<path transform="translate(839,311)" d="m0 0 6 1 3 3 3 9v3l-11-6 1-2 6 2-2-5-7-2z" fill="#7ACFD1"/>
<path transform="translate(338,519)" d="m0 0h2v4l-4 2-1 7h-4v-12l5 1z" fill="#F5F5F7"/>
<path transform="translate(169,519)" d="m0 0h2v4l-4 2-1 7h-4v-12l5 1z" fill="#F5F5F7"/>
<path transform="translate(915,383)" d="m0 0 10 2 2 1v2l9 2v3h3v2l-5-1-1-3h-6l-4-3-7-2z" fill="#62969C"/>
<path transform="translate(631,1130)" d="m0 0h6v14l-1 1h-5l4-1-4-10z" fill="#54AAA3"/>
<path transform="translate(915,1082)" d="m0 0 2 2v7l-2 1v-7h-2v8l-2 1-1-6-1 7h-2v-9z" fill="#B39BDE"/>
<path transform="translate(1053,1009)" d="m0 0 3 1 1 7-2 1-1-3-2 5-1-3 1-4-1 1v7l2 2-4 1-1-1v-8l3-5z" fill="#61C0BD"/>
<path transform="translate(469,819)" d="m0 0h4v5l1 2-3 5-1 1h-5l1-3 4-1-2-1v-3l-2 1 1-4z" fill="#92C6E8"/>
<path transform="translate(891,1165)" d="m0 0h5v6l-3 4-5-1 1-6z" fill="#B282B9"/>
<path transform="translate(951,1135)" d="m0 0h5v6l-3 4-5-1 1-6z" fill="#B182BA"/>
<path transform="translate(992,1091)" d="m0 0h4v7l-3 3-5-1 1-6z" fill="#509091"/>
<path transform="translate(1093,989)" d="m0 0 3 1 1 7-2 1-1-3-2 5-1-3 2-5h-2v9l2 2-4 1-1-1v-8l3-5z" fill="#61C1BE"/>
<path transform="translate(1e3 964)" d="m0 0h2v7h2l-2 6-3-1-4 1 1-5z" fill="#62C2C0"/>
<path transform="translate(1013,959)" d="m0 0h2v7h2l-2 6-3-1-4 1 1-5z" fill="#62C2C0"/>
<path transform="translate(1023,954)" d="m0 0h2v7h2l-2 6-3-1-4 1 1-5z" fill="#62C2C0"/>
<path transform="translate(902,947)" d="m0 0 4 1v7l-5 3h-2l-1-3 2-7z" fill="#A08BC6"/>
<path transform="translate(953,945)" d="m0 0 3 1v6l-4 4-4-1 1-7z" fill="#487E7E"/>
<path transform="translate(912,918)" d="m0 0 4 1v7l-5 3-3-1 1-7z" fill="#48797A"/>
<path transform="translate(867,575)" d="m0 0h3l-1 4 1 1v5l-1 1h-6l-1-1v-5l2-2 4-1z" fill="#B7D8E6"/>
<path transform="translate(894,443)" d="m0 0 4 2 5 5v3h-9z" fill="#80D1D4"/>
<path transform="translate(632,244)" d="m0 0 4 1v6l-3 4-4-1v-7z" fill="#F5F6F7"/>
<path transform="translate(888,254)" d="m0 0 9 2 3 1v2l8 2 1 2-1 2h-2v-2l-9-2v-2l-8-2z" fill="#67969E"/>
<path transform="translate(853,1113)" d="m0 0h2l1 2v7l-4 2-4-1 2-4v-4z" fill="#9A86BF"/>
<path transform="translate(873,1052)" d="m0 0h2v7h2v2h-2v4h-2v-2l-5 2 1-5z" fill="#519695"/>
<path transform="translate(883,1047)" d="m0 0h2v7h2v2h-2v4h-2v-2l-5 2 1-5z" fill="#519795"/>
<path transform="translate(893,1042)" d="m0 0h2v7h2v2h-2v4h-2v-2l-5 2 1-5z" fill="#58AAA8"/>
<path transform="translate(312,1031)" d="m0 0 5 1v7l-2 4-6 1 1-3 3-2-1-3h2v-2l-5 3 1-4z" fill="#91C5E8"/>
<path transform="translate(876,172)" d="m0 0 4 2 14 13-1 3h-6l4-2-11-10h-2l-2-2z" fill="#75C5C3"/>
<path transform="translate(894,1136)" d="m0 0 2 2-5 4 4-1 1 1v6l-5 4-3-1 1-3h4l1-5-6 4 1-8z" fill="#60C0BD"/>
<path transform="translate(903,919)" d="m0 0 3 1-5 4 4-1 1 1v6l-4 4-4-1v-2l5-1 1-4-6 3 1-8z" fill="#60BFBC"/>
<path transform="translate(973,884)" d="m0 0h2v7h2v2h-2v4h-2v-2l-5 2 1-5z" fill="#65C6C5"/>
<path transform="translate(963,865)" d="m0 0h2v8l2 1-2 4-3-1-4 1 3-9z" fill="#4D8687"/>
<path transform="translate(844,1161)" d="m0 0 1 3-4 3 4-1 1 1-1 7-4 3-3-1 1-3h4l1-5-6 4 1-8z" fill="#61C0BE"/>
<path transform="translate(1012,1081)" d="m0 0 4 1v7h-3v2l-4 1v-8z" fill="#447273"/>
<path transform="translate(894,1065)" d="m0 0h1v8l2 1-3 5-2-2-4 1 3-9z" fill="#59A9A8"/>
<path transform="translate(376 1e3)" d="m0 0 1 3-5 3-11 5-3-1 3-3z" fill="#D2E6EE"/>
<path transform="translate(840,944)" d="m0 0h8l2 3-2 9-3-6h-5z" fill="#403943"/>
<path transform="translate(1103,795)" d="m0 0 3 1-1 7-1 3h2v2l-6 3h-2l2-5 4-8h-3l-1 4h-2l2-5z" fill="#60BEBC"/>
<path transform="translate(1063,1028)" d="m0 0 3 1-5 2 1 2h4v6l-4 4-4-1v-2l5-1 1-3h-3l-1 2h-2l1-8z" fill="#5EBDB9"/>
<path transform="translate(595,993)" d="m0 0h2v3l4-1 2 4-3 4h-6z" fill="#87C0E6"/>
<path transform="translate(974,955)" d="m0 0h1v8l2 1-2 4-3-1-4 1 3-9z" fill="#57A2A1"/>
<path transform="translate(1043,944)" d="m0 0 3 1-5 4 4-1 1 1v6l-4 4-4-1v-2l5-1 1-3h-3l-1 2h-2l1-8z" fill="#5FBEBB"/>
<path transform="translate(874,1075)" d="m0 0 2 1-4 3h-2l1 2 4-1 1 1-1 7-2 2h-5l1-3h4l1-5-6 4 1-8z" fill="#5FBEBB"/>
<path transform="translate(1053,1033)" d="m0 0 3 1-5 3-1 2 5-2 1 1v6l-4 4-4-1v-2l5-1 1-3h-3l-1 2h-2l1-8z" fill="#5FBDBA"/>
<path transform="translate(964,936)" d="m0 0h1v8l2 1-2 4-3-1-4 1 3-9z" fill="#58A2A2"/>
<path transform="translate(951,330)" d="m0 0h3v22h-2l-1-6z" fill="#669A9F"/>
<path transform="translate(843,1020)" d="m0 0 3 1 1 5-2 3-1-4-2 6-1-4v-3l-2 8 4 2-4 1-1-1v-9z" fill="#63C2C0"/>
<path transform="translate(924,980)" d="m0 0 2 1-1 7-1 3h2v2l-6 3h-2l2-5 4-8h-3l-1 4h-2l2-5z" fill="#5EBBB8"/>
<path transform="translate(993,945)" d="m0 0 3 1v10l-4 4-4-1 1-3 1 2 4-4h-3l3-6h-3l-1 3-1-3z" fill="#60BFBD"/>
<path transform="translate(879,907)" d="m0 0 2 3 4-1 1 1v8h-2v-6h-3l-1 9h-2v-13z" fill="#62C2C0"/>
<path transform="translate(933,880)" d="m0 0 3 1-1 7-1 3h2v2l-8 3 2-5 4-8h-3l-1 4h-2l2-5z" fill="#5EBCB9"/>
<path transform="translate(912,1107)" d="m0 0 4 1-1 4-4 2 5-1-5 5h-2l-1-7z" fill="#A38ECA"/>
<path transform="translate(985,996)" d="m0 0 1 2-5 3h2l3 1-1 7-5 3-2-1 1-3h4l1-5-6 4 1-8z" fill="#62C1BF"/>
<path transform="translate(963,960)" d="m0 0 3 1-1 7-1 3h2v2l-8 3 2-5 4-8h-3l-1 4-2-1 3-5z" fill="#5EBDB9"/>
<path transform="translate(924,1050)" d="m0 0 2 1-4 3h-2l1 2 4-1 1 1-1 7-2 2-5-1 2-2h3l1-5-4 3h-2l1-7z" fill="#62C2C0"/>
<path transform="translate(914,1031)" d="m0 0v3l-3 3 4-1 1 1-1 7-5 3-2-1 1-3h4l1-5-6 4 1-8z" fill="#61C1BF"/>
<path transform="translate(882,1028)" d="m0 0 4 1-1 4-4 2 4-1-2 4-3 1-2-1 1-7z" fill="#BF87C2"/>
<path transform="translate(942,998)" d="m0 0 4 1-1 4-4 2 4-1-2 4-3 1-2-1 1-7z" fill="#BE87C1"/>
<path transform="translate(992,874)" d="m0 0 4 1v10l-5 4-3-1 1-3h4l1-3h-3v-2l2-1 1-3-5 4 1-4z" fill="#62C1BF"/>
<path transform="translate(952,874)" d="m0 0 4 1-1 4-4 3 5-2-2 4-5 1-1-6z" fill="#5BAEAD"/>
<path transform="translate(852,1157)" d="m0 0 4 1 1 5-3 7-2-1 2-4v-3l-2 6-1-4v-3l-2 7h-1v-6z" fill="#65C5C4"/>
<path transform="translate(913,989)" d="m0 0 3 1v8l-4 2-4-1 3-5 3-3-5 3 2-4z" fill="#59AEAC"/>
<path transform="translate(795,652)" d="m0 0h1l1 7 7 4-4 2-3 4h-2z" fill="#75C8CF"/>
<path transform="translate(460,573)" d="m0 0 5 1 1 5-2 2-5-1-1-5z" fill="#EFF3F5"/>
<path transform="translate(951,353)" d="m0 0h3v22h-3v-12-4z" fill="#64A2A5"/>
<path transform="translate(883,1094)" d="m0 0 2 1-2 3h2v2h-2v10l-3 4h-2v-2h2l1-10-3-1z" fill="#B39BDE"/>
<path transform="translate(953,1063)" d="m0 0h2l1 2v7l-4 2-4-1 3-5 3-3-5 3 2-4z" fill="#59ACAA"/>
<path transform="translate(1035,971)" d="m0 0 1 2-5 3h2l3 1-1 7-5 3-2-1 1-3h4l1-4-6 3 1-8z" fill="#63C2C1"/>
<path transform="translate(932,952)" d="m0 0h4l-1 7-2 3h3v2l-6 3h-2l2-4 4-9-4 4-2-1 2-4z" fill="#61C1BE"/>
<path transform="translate(913,894)" d="m0 0 3 1-1 4-4 2-1 2 4-3 2 1-2 3-5 1-1-6z" fill="#5CAEAD"/>
<path transform="translate(1081,877)" d="m0 0h5l1 7-2 4-1-3v-3l-2 6-1-4v-3l-2 6h-1l1-7z" fill="#63C3C1"/>
<path transform="translate(382,597)" d="m0 0 5 1 1 4-2 3-5-1-1-5z" fill="#F1F4F6"/>
<path transform="translate(222,520)" d="m0 0 5 1-1 11h-4z" fill="#F5F5F7"/>
<path transform="translate(971,932)" d="m0 0h5v11l-4 3-4-1v-2h5l1-3h-3l3-6-5 3z" fill="#63C4C2"/>
<path transform="translate(362,614)" d="m0 0h5l1 6-5 2-3-3 1-4z" fill="#EFF4F5"/>
<path transform="translate(457,559)" d="m0 0 4 1 1 5-2 2-5-1-1-4z" fill="#F0F4F5"/>
<path transform="translate(614,979)" d="m0 0h1v5l9-5h4v3l-13 6z" fill="#C5E2E9"/>
<path transform="translate(944,898)" d="m0 0v3 4l-2 12-4 2v-2l2-1v-9-3l2-5z" fill="#5FBDBA"/>
<path transform="translate(474,840)" d="m0 0 2 1-1 1v17l-2 5h-1v-23z" fill="#6CCCCD"/>
<path transform="translate(412,597)" d="m0 0 5 1 1 4-3 3-4-1-1-5z" fill="#F1F5F5"/>
<path transform="translate(474,559)" d="m0 0 4 1 1 5-2 2-5-1-1-4z" fill="#F1F4F6"/>
<path transform="translate(407,524)" d="m0 0h5l2 2-1 4-4 2-3-2v-5z" fill="#F0F4F6"/>
<path transform="translate(863,1108)" d="m0 0 3 1v8h-2v-6l-3 3-1 6h-2v-9z" fill="#B39BDE"/>
<path transform="translate(944,1087)" d="m0 0v3l-1 2 2 1-1 1-2 12-4 2v-2l2-1 1-9h-2l2-7z" fill="#5FBDBA"/>
<path transform="translate(992,992)" d="m0 0 4 1v10l-5 4-3-3 5-1 1-3h-3v-2l2-1 1-3-5 4 1-4z" fill="#65C6C5"/>
<path transform="translate(1e3 987)" d="m0 0 4 1v10l-5 4-3-3 5-1 1-3h-3v-2l2-1 1-3-5 4 1-4z" fill="#65C5C4"/>
<path transform="translate(1012,982)" d="m0 0 4 1v10l-5 4-3-3 5-1 1-3h-3v-2l2-1 1-3-5 4 1-4z" fill="#65C6C5"/>
<path transform="translate(943,970)" d="m0 0 2 1-2 3h2v2h-2v10l-3 4h-2v-2l2-1 1-9h-2v-2h2l1-5z" fill="#60BEBC"/>
<path transform="translate(935,930)" d="m0 0 1 4v3l-6 3h-2v-6z" fill="#A095AB"/>
<path transform="translate(954,917)" d="m0 0 1 2h-2l2 4-1 1-2 12-4 1 2-3 1-9-2-1 3-6z" fill="#5FBCBA"/>
<path transform="translate(1082,879)" d="m0 0 1 2v1l2-2v9l-3 2-4-1 2-9z" fill="#426B6D"/>
<path transform="translate(1102,867)" d="m0 0h4l-1 7-2 4 3-1v2l-6 3-2-1 5-8 1-4-4 4-2-1 2-4z" fill="#62C2C0"/>
<path transform="translate(376,616)" d="m0 0 5 1 1 4-3 3-4-1-1-5z" fill="#F2F5F6"/>
<path transform="translate(424,591)" d="m0 0h5l1 1v5l-2 2-4-1-1-1v-5z" fill="#F1F4F6"/>
<path transform="translate(432,513)" d="m0 0h5l1 1v5l-2 2-4-1-1-1v-5z" fill="#F2F5F6"/>
<path transform="translate(418,451)" d="m0 0 4 1 1 1v5l-1 1h-5l-1-1v-5z" fill="#F0F4F6"/>
<path transform="translate(844,116)" d="m0 0 1 2 9 3 3 3h-9l-4-1z" fill="#62BEC8"/>
<path transform="translate(895,1116)" d="m0 0 2 1-5 15h-2v-6l-2-6 2-1 1 4h2l1-6z" fill="#B39BDE"/>
<path transform="translate(944,1111)" d="m0 0 1 2h-2l2 4-1 1-2 12-4 1 2-2v-9-3l2-5z" fill="#5EBCB9"/>
<path transform="translate(844,1070)" d="m0 0h2l-2 9-3 7-2-1 1-5-2-7h2l2 3z" fill="#B39BDE"/>
<path transform="translate(1043,1038)" d="m0 0 3 1-1 7-1 3 2 1-8 4 2-5 3-5 1-4-5 4 1-4z" fill="#63C2C1"/>
<path transform="translate(962,889)" d="m0 0 4 1-1 6-1 4 2 1-5 3-3-1 5-8 1-4-4 4-2-1z" fill="#65C5C4"/>
<path transform="translate(375,614)" d="m0 0 4 2-4 2v5h6v-2l3 1-3 3-5 1-4-4 1-7z" fill="#78CED2"/>
<path transform="translate(462,559)" d="m0 0 2 1v6l-3 3h-6l-3-3 1-5 2 1 1 4 5-1v-5z" fill="#78CED1"/>
<path transform="translate(946,279)" d="m0 0 3 1 5 10v6h-3l1-6h-2l-1-5h-2v-3h-2z" fill="#689EA6"/>
<path transform="translate(802,254)" d="m0 0 9 3 4 3h-12l-1-1z" fill="#64C2CC"/>
<path transform="translate(899,1157)" d="m0 0h4l1 9h2l-1 3-4 2h-3v-2l2-1 1-9-3-1z" fill="#CE92D2"/>
<path transform="translate(909,1152)" d="m0 0h4l1 9h2l-1 3-4 2h-3v-2l2-1 1-9-3-1z" fill="#CE92D2"/>
<path transform="translate(923,909)" d="m0 0 3 1-1 6-1 4 2 1-5 3-3-1 5-8 1-4-4 4-2-1z" fill="#64C4C3"/>
<path transform="translate(941,878)" d="m0 0 2 1v2l1-2h3l-2 9-2 1-3-2v-7z" fill="#436F70"/>
<path transform="translate(470,559)" d="m0 0 2 3 1 4 5-1v-4h3l-1 6-2 2h-6l-3-3z" fill="#7ACED2"/>
<path transform="translate(854,265)" d="m0 0 7 3-2 1-1 7-1 3-2-1z" fill="#8DD1D7"/>
<path transform="translate(844,1094)" d="m0 0h2l-2 9-2 6h-2l-1-8-1-4 3 1 1 2z" fill="#B39BDE"/>
<path transform="translate(1012,1030)" d="m0 0h1l1 10h2v2l-6 3h-2v-2l2-1 1-8-3-1z" fill="#63C3C1"/>
<path transform="translate(890,1020)" d="m0 0h3v10l3 1-6 4-2-2 3-1-1-9-2-1z" fill="#CD92D2"/>
<path transform="translate(900,1015)" d="m0 0h3v10l3 1-6 4-2-2 3-1-1-9-2-1z" fill="#CD92D2"/>
<path transform="translate(861,1011)" d="m0 0h2l1 10 2 1-6 4h-2v-2l2-1v-8l-2 1 2-4z" fill="#65C5C3"/>
<path transform="translate(406,522)" d="m0 0 5 1-4 2v5l3 1 5-2-2 4h-7l-2-2v-7z" fill="#7ACFD1"/>
<path transform="translate(831,1168)" d="m0 0h2v10l3-1-1 3-7 3 1-3h2l-1-8-2-1z" fill="#65C6C4"/>
<path transform="translate(872,1127)" d="m0 0h3l-1 3 1 1 1 3-3 3-4 1v-3l4-1h-4v-5z" fill="#B39BDE"/>
<path transform="translate(873,1103)" d="m0 0h2v3h-3l-1 2 4-1 1 3-4 4h-3l1-3 2-1h-3l1-5z" fill="#B39BDE"/>
<path transform="translate(1082,1042)" d="m0 0h1v11l3-1-1 3-4 2-3-1 3-1-1-8-2-1z" fill="#61C1BF"/>
<path transform="translate(305,1035)" d="m0 0h2v12h-3l-1-6h-2l2-4z" fill="#9ECBEA"/>
<path transform="translate(1072 1e3)" d="m0 0h1l1 10h2v2l-6 3-2-1 2-2 1-8-3-1z" fill="#60BFBD"/>
<path transform="translate(932 1e3)" d="m0 0h3v2l-3 1 4 1-2 6-4 1-2-2 5-1v-2l-3 1-1-4z" fill="#CB92D3"/>
<path transform="translate(974,982)" d="m0 0h2l-1 7v3h-3l-1 2h-2v-6l-1-3 5 1z" fill="#B39BDE"/>
<path transform="translate(861,940)" d="m0 0h2v10l3-1-1 3-7 3 1-3h2l-1-8-2-1z" fill="#67C8C8"/>
<path transform="translate(872,914)" d="m0 0h3l-1 3-2 1 4 1-2 5-5 1v-3l4-1h-4l1-5z" fill="#60BFBC"/>
<path transform="translate(1092,801)" d="m0 0h1l1 10h2v2l-8 3v-2l2-1 1-8-3-1z" fill="#61C0BE"/>
<path transform="translate(352,601)" d="m0 0 2 2 2 8-6-1-2-1v-3h2z" fill="#D3BEE4"/>
<path transform="translate(852,1159)" d="m0 0 1 2v1l2-1-1 7-1 3-5-1 2-9z" fill="#3E5E60"/>
<path transform="translate(769,1162)" d="m0 0h7v6h-7z" fill="#58B8B3"/>
<path transform="translate(881,1143)" d="m0 0h2v10l3-1-1 3-4 2-3-1 3-1-1-8-2-1z" fill="#66C8C6"/>
<path transform="translate(902,1132)" d="m0 0 4 1v3l-2 1-1 3-2-1v-3l-2 7h2l1 3-4-1v-8z" fill="#65C6C5"/>
<path transform="translate(845,1117)" d="m0 0v3l-3 6 3-1-1 3-6 2v-2h2v-6l-2-1z" fill="#B39BDE"/>
<path transform="translate(834,1099)" d="m0 0 2 1v2l-5 2 1 3 4-2-3 5h-4l-1-6 3-4z" fill="#B39BDE"/>
<path transform="translate(769,1103)" d="m0 0h7v6h-7z" fill="#58B8B3"/>
<path transform="translate(905,1087)" d="m0 0v3l-3 6 3-1-1 3-6 2v-2h2v-6l-2-1z" fill="#B39BDE"/>
<path transform="translate(834,1075)" d="m0 0h2v2l-3 3-1 3h3v2l-4 2-3-1 2-6h-2v-2z" fill="#B39BDE"/>
<path transform="translate(260,1058)" d="m0 0 2 1-4 4-6 3h-4l1-3z" fill="#D3E7EE"/>
<path transform="translate(841,1023)" d="m0 0 2 1v1l2-1 1 7-3 3-4-2 1-8z" fill="#3D5B5D"/>
<path transform="translate(322,1026)" d="m0 0h1v13h-3l-1-6-1-3z" fill="#A6D0EB"/>
<path transform="translate(954,1015)" d="m0 0h2l-1 7v3l-3-1-1 3-3-1 2-5-2-3 5 1z" fill="#B39BDE"/>
<path transform="translate(1073,882)" d="m0 0h3v11l-4 3-4-1 1-4 1 3 3-1 1-4-3 1v-2l2-1z" fill="#64C4C2"/>
<path transform="translate(945,1067)" d="m0 0 2 2v7l-2 1v-7h-2v8l-2 1-1-9z" fill="#61C0BD"/>
<path transform="translate(1055,1060)" d="m0 0 1 3-4 12-2 1v-7l-2-6 3 1 1 2z" fill="#62C2C0"/>
<path transform="translate(964,987)" d="m0 0h2l-2 4-2 5 3-1v2l-4 2-3-1h2v-6h-2v-2z" fill="#B39BDE"/>
<path transform="translate(891,972)" d="m0 0 2 1v10l3-1v2l-6 3-2-1 2-2 1-9-3-1z" fill="#63C3C3"/>
<path transform="translate(901,967)" d="m0 0 2 1v10l3-1v2l-6 3-2-1 2-2 1-9-3-1z" fill="#63C3C3"/>
<path transform="translate(882,957)" d="m0 0h4v2l-4 1-1 4 2 1 1-3h2l-2 4-5 1-1-6z" fill="#B39BDE"/>
<path transform="translate(466,791)" d="m0 0h2v17l-2-3-1-3v-10z" fill="#6BCDCD"/>
<path transform="translate(930,273)" d="m0 0h4l5 2v2l6 1-1 3-5-1v-2l-9-2z" fill="#639A9E"/>
<path transform="translate(941,1140)" d="m0 0h4v2h-4v2l4-1 1 3-3 4h-4v-2l4-1-4-1 1-5z" fill="#CE92D2"/>
<path transform="translate(900,1109)" d="m0 0 3 1 1 9 2 1-8 4v-2l2-1v-9h-2v-2z" fill="#B39BDE"/>
<path transform="translate(960,1103)" d="m0 0h3v10l3 1-5 3-3-1 3-1-1-9z" fill="#65C5C3"/>
<path transform="translate(572,1007)" d="m0 0 1 3-12 7v-3l3-3z" fill="#D1E6ED"/>
<path transform="translate(953,970)" d="m0 0 3 1-1 7-2 1-3-1 1-7z" fill="#457778"/>
<path transform="translate(911,966)" d="m0 0h4v2h-4v2l4-1 1 3-3 4h-4v-2l4-2h-4l1-5z" fill="#60BFBC"/>
<path transform="translate(890,949)" d="m0 0h3v10l3 1-5 3-3-1 3-1v-10l-3-1z" fill="#B39BDE"/>
<path transform="translate(912,942)" d="m0 0h3v2h-4v2l4-1 1 4-3 3h-4v-2h4v-2h-4l1-5z" fill="#B39BDE"/>
<path transform="translate(922,937)" d="m0 0h3v2h-4v2l4-1 1 4-3 3h-4v-2h4v-2h-4l1-5z" fill="#B39BDE"/>
<path transform="translate(893,904)" d="m0 0 3 1v8l-4 2h-4l1-4 1 2 3-2 1-4-5 2 2-4z" fill="#61C1BE"/>
<path transform="translate(970,1098)" d="m0 0h3v10l3 1-5 3-3-1 3-1v-10l-2-1z" fill="#65C6C4"/>
<path transform="translate(960,1079)" d="m0 0h3l1 10 2 1-8 4v-2l2-1v-9z" fill="#66C7C6"/>
<path transform="translate(970,1074)" d="m0 0h3l1 10 2 1-8 4v-2l2-1v-9z" fill="#66C6C5"/>
<path transform="translate(942,1021)" d="m0 0h4v2l-4 1-1 4 2 1 1-3h2l-2 4-5 1-1-5 2-4z" fill="#B39BDE"/>
<path transform="translate(1091,992)" d="m0 0h2v3l2-2 1 7-3 3-3-2v-7z" fill="#3C5A5D"/>
<path transform="translate(941,949)" d="m0 0 4 1-1 7-1 2-3-1v-7z" fill="#3C5C5E"/>
<path transform="translate(852,944)" d="m0 0 4 1 1 6-2 4-1-3 1-4h-4l-2 7h-1v-6z" fill="#63C3C2"/>
<path transform="translate(982,927)" d="m0 0h4v8l-2-2v-4l-3 2-1 3h3v2l-5-1 1-5z" fill="#63C3C1"/>
<path transform="translate(1092,872)" d="m0 0h1v11l3-1v2l-6 3-2-1 2-2 1-8-2-1z" fill="#63C3C1"/>
<path transform="translate(461,823)" d="m0 0h3v11l-3 1-1-7v-3z" fill="#90C5E8"/>
<path transform="translate(867,245)" d="m0 0h6l6 3v2h3v2l-6-1v-2l-9-2z" fill="#689BA4"/>
<path transform="translate(1041,1064)" d="m0 0 1 2 4-1-2 3h-2v5l4 1-5 2-1-6-2-1z" fill="#5DBAB7"/>
<path transform="translate(1051,1012)" d="m0 0 2 1v2l2-2 1 7-3 3-3-2v-7z" fill="#3B5A5C"/>
<path transform="translate(873,981)" d="m0 0h2v2h-2v2h2v2l-2 1-1 11-4 2 2-3 1-9-2-1 3-6z" fill="#65C5C4"/>
<path transform="translate(1022,914)" d="m0 0 3 1-1 5-5 1-1-4 1-2z" fill="#477E7E"/>
<path transform="translate(992,902)" d="m0 0h3v2h-4v2l4-1 1 3-3 4h-4v-2l4-1-4-1 1-5z" fill="#64C4C2"/>
<path transform="translate(970,909)" d="m0 0h3v10l3 1-6 3-2-1 3-1v-10l-2-1z" fill="#67C8C7"/>
<path transform="translate(980,904)" d="m0 0h3v10l3 1-6 3-2-1 3-1v-10l-2-1z" fill="#67C8C7"/>
<path transform="translate(992,854)" d="m0 0 4 1-2 2h-2l-1 5 5-3-2 5-4 1-2-2 1-6z" fill="#60BEBC"/>
<path transform="translate(1032,834)" d="m0 0 4 1-2 2h-2l-1 5 5-3-2 5-4 1-2-2 1-6z" fill="#60BEBB"/>
<path transform="translate(910,1126)" d="m0 0 4 2 1 9-3 8-2-1 2-6v-7z" fill="#60BCBB"/>
<path transform="translate(995,1042)" d="m0 0 1 2-1 5 1 3-4-1-3 4 1-6-2-3 3-1v2h2z" fill="#5FBDBA"/>
<path transform="translate(983,954)" d="m0 0 3 1-2 2h-2l-1 5 5-3-2 5-4 1-2-2 1-6z" fill="#5FBDBA"/>
<path transform="translate(1e3 917)" d="m0 0h4v2l-5 2-1 8h2v2l-4-1v-8z" fill="#65C5C4"/>
<path transform="translate(1033,905)" d="m0 0 3 1v2h-5v5h2l1-2 2 1-4 4h-3l-1-5 3-5z" fill="#5FBEBC"/>
<path transform="translate(1055,819)" d="m0 0 1 4-4 11-2 1 3-12-5 1 3-3z" fill="#60BFBC"/>
<path transform="translate(921,1150)" d="m0 0 2 1 1 5h2l-1 3-6 2 1-7-1-3z" fill="#CD92D2"/>
<path transform="translate(902,1061)" d="m0 0 4 1v9l-2-4v-4l-3 1-1 5 2 1h-4l1-7z" fill="#66C7C6"/>
<path transform="translate(842,949)" d="m0 0 4 1 1 6-2 4-1-3-1-4h-2l-2 5-1-4z" fill="#64C3C2"/>
<path transform="translate(993,925)" d="m0 0 3 1v2h-5v5h2l1-2 2 1-4 4h-3l-1-5 2-4z" fill="#60C0BD"/>
<path transform="translate(934,903)" d="m0 0h2v13l-5 2 2-3 1-5-3-1 3-1z" fill="#68C9C8"/>
<path transform="translate(982,883)" d="m0 0 4 1-2 2-3 1-1 4 6-3-2 4-4 2-2-2 1-6z" fill="#62C1BF"/>
<path transform="translate(476,818)" d="m0 0h1l1 5h2l1-2h2l-1 4-2 2-5-1v-7z" fill="#8EC4E7"/>
<path transform="translate(769,1168)" d="m0 0h7v5h-7z" fill="#6BCDCD"/>
<path transform="translate(841,1137)" d="m0 0 3 3 1 2-1 9-2 5-2-1 2-6-1-9z" fill="#61BFBD"/>
<path transform="translate(831,1122)" d="m0 0 4 1v2l-2 1-1 5 3-1-1 3-4-1v-5l-2-1z" fill="#B39BDE"/>
<path transform="translate(880,1121)" d="m0 0 6 1-4 2 1 5h2v2l-4 1-1-1v-5l-2-1z" fill="#B39BDE"/>
<path transform="translate(769,1098)" d="m0 0h7v5h-7z" fill="#6BCDCD"/>
<path transform="translate(910,1014)" d="m0 0h3v6l3 1-6 4-1-3h2v-5h-2z" fill="#CB93D3"/>
<path transform="translate(885,999)" d="m0 0h1v13h-2v-5l-5 2 2-4h3v-5z" fill="#69CACA"/>
<path transform="translate(935,974)" d="m0 0h1v13h-2v-5l-5 2 2-4h3v-5z" fill="#68CAC9"/>
<path transform="translate(831,935)" d="m0 0h2l1 6h2v2l-6 3h-2v-2l2-1 1-5h-2v-2z" fill="#B39BDE"/>
<path transform="translate(1054,891)" d="m0 0h2l-2 9-2 6-2-1 3-11-5 2v-2z" fill="#63C3C2"/>
<path transform="translate(961,1057)" d="m0 0 4 1v2l-2 1-1 5 3-1-1 3-4-1v-5l-2-1z" fill="#62C1BF"/>
<path transform="translate(1e3 1032)" d="m0 0 1 2-2 10 2 7-4-2v-11z" fill="#62C1BF"/>
<path transform="translate(973,865)" d="m0 0 3 1-1 7-3 2-4-1 1-3 1 2 3-2 1-3-3 1z" fill="#60C0BD"/>
<path transform="translate(919,267)" d="m0 0h2v2l9 2-2 4-1-3h-6l-3-2z" fill="#67939C"/>
<path transform="translate(928,1147)" d="m0 0h3v5l1 3h-2v5h-2z" fill="#D68FCE"/>
<path transform="translate(774,1134)" d="m0 0 4 1v6h-5v-6z" fill="#56ADA8"/>
<path transform="translate(831,1006)" d="m0 0 2 1 1 5h2v2l-6 3-2-1 2-2 1-5h-2v-2z" fill="#E0D9EE"/>
<path transform="translate(842,951)" d="m0 0 3 1-1 8-2 1-2-2v-6z" fill="#476469"/>
<path transform="translate(384,612)" d="m0 0h5l-4 3h-2l1 6h-2l-3-5-2-2z" fill="#68C5CC"/>
<path transform="translate(925,399)" d="m0 0 9 3 3 3-10-1-2-1z" fill="#6DC9CF"/>
<path transform="translate(900,387)" d="m0 0 15 6v1l-9-1-7-3z" fill="#68BAC0"/>
<path transform="translate(841,314)" d="m0 0 4 1 2 2v4l-6-2-1-4z" fill="#F3F5F6"/>
<path transform="translate(858,242)" d="m0 0h8l1 3h-6l-2 1-1 3-3-1z" fill="#6FAAB2"/>
<path transform="translate(1033,1041)" d="m0 0 1 2-2 10 2 7-3-1-1-2v-10z" fill="#66C6C6"/>
<path transform="translate(981,1049)" d="m0 0h2l1 6 2 1-6 4v-3l1-5h-2v-2z" fill="#60BFBD"/>
<path transform="translate(902,995)" d="m0 0h4v6l-4 4-4-1v-2l5-1 1-4-3-1z" fill="#62C1C0"/>
<path transform="translate(741,1134)" d="m0 0 4 1v5l-4 1-1-1v-5z" fill="#56ACA6"/>
<path transform="translate(757,1133)" d="m0 0h4v8l-4-1z" fill="#4FA59E"/>
<path transform="translate(950,1112)" d="m0 0h3v6l3 1-5 3h-2v-2h2l-1-5z" fill="#61C1BF"/>
<path transform="translate(1030,1072)" d="m0 0h3v6l3 1-5 3h-2v-2h2l-1-5z" fill="#61C0BE"/>
<path transform="translate(590 1e3)" d="m0 0 3 1-1 5-2 1-3-1 1-5z" fill="#AAD1EC"/>
<path transform="translate(881,981)" d="m0 0 2 1 1 5h2v2l-7 3v-2h2v-6h-2v-2z" fill="#64C3C5"/>
<path transform="translate(859,945)" d="m0 0 2 1v6l-5 2v-8z" fill="#403943"/>
<path transform="translate(909,449)" d="m0 0h1v15l-3 2-5-2v-2h6z" fill="#6ECDCE"/>
<path transform="translate(969,1055)" d="m0 0h4l-1 6 3 1-5 3-2-1 1-1z" fill="#5EBDB9"/>
<path transform="translate(830,1027)" d="m0 0 2 1-2 4h2l-2 6 3 1-4 1-1-5v-3z" fill="#65C5C3"/>
<path transform="translate(960,918)" d="m0 0h3v6l3 1-5 3h-2v-2h2v-6l-2-1z" fill="#62C2C0"/>
<path transform="translate(834,907)" d="m0 0 1 2-3 5 3 2-1 3-5-3 2-6z" fill="#DBD2ED"/>
<path transform="translate(202,523)" d="m0 0h4v6h-4l-1-5z" fill="#B8A1DF"/>
<path transform="translate(888,382)" d="m0 0h1l1 12 3 2v2h-6z" fill="#84CAC6"/>
<path transform="translate(951,1088)" d="m0 0h2v6l3 1-5 3-2-1 1-1v-5l-1-2z" fill="#65C6C5"/>
<path transform="translate(1e3 968)" d="m0 0 2 3h2l-2 6h-2l-3-4z" fill="#4B8282"/>
<path transform="translate(1013,963)" d="m0 0 2 3h2l-2 6h-2l-3-4z" fill="#4B8282"/>
<path transform="translate(1023,958)" d="m0 0 2 3h2l-2 6h-2l-3-4z" fill="#4B8383"/>
<path transform="translate(963,865)" d="m0 0h2v8l2 1-2 4h-2l-1-4 2-5h-2z" fill="#64C4C2"/>
<path transform="translate(986,579)" d="m0 0 3 1v5l-10-2-1-2 7-1z" fill="#699EBA"/>
<path transform="translate(951,307)" d="m0 0h3v12h-3z" fill="#64A3A8"/>
<path transform="translate(853,1240)" d="m0 0h3l-1 5-3 2h-4l1-4 1 2 3-2-2-2z" fill="#CE92D2"/>
<path transform="translate(860,1226)" d="m0 0 5 2-1 4-3 5-2-1 3-6-3-3z" fill="#DCD1EC"/>
<path transform="translate(880,1192)" d="m0 0 5 2-1 5-3 4-2-1 3-6-3-3z" fill="#D8CEEC"/>
<path transform="translate(883,1077)" d="m0 0h3l-1 6-2 2h-5l1-5 1 3 3-1z" fill="#66C7C6"/>
<path transform="translate(1012,1081)" d="m0 0 4 1v7l-3-1 1-2-2-1h2v-2l-5 3 2-4z" fill="#67C7CA"/>
<path transform="translate(1e3 1063)" d="m0 0 2 1-1 6 3-1v2l-6 2v-9z" fill="#61C0BD"/>
<path transform="translate(871,1056)" d="m0 0 1 3v2l4-1-1 5h-2v-2l-5 2 1-5z" fill="#62C1BF"/>
<path transform="translate(881,1051)" d="m0 0 1 3v2l4-1-1 5h-2v-2l-5 2 1-5z" fill="#61C1BE"/>
<path transform="translate(1031,1020)" d="m0 0h2l-2 10h-2l-1-6z" fill="#467B7B"/>
<path transform="translate(853,969)" d="m0 0 2 1-3 6 3 3h-4l-2-1 1-4z" fill="#DBD2ED"/>
<path transform="translate(912,918)" d="m0 0 4 1v7l-3-1 1-2-2-1h2v-2l-5 3 2-4z" fill="#63C3C1"/>
<path transform="translate(395,592)" d="m0 0h5l-4 3-6 3h-3v-2z" fill="#68C8CC"/>
<path transform="translate(834,1239)" d="m0 0v3l-2 4 3 2v2l-5-1-1-3 4-6z" fill="#D8CFE7"/>
<path transform="translate(874,1080)" d="m0 0 2 1-1 7-2 2h-5l1-3h4v-6z" fill="#63C3C1"/>
<path transform="translate(1015,1056)" d="m0 0 1 2-2 5-4-1 1-4z" fill="#4E9190"/>
<path transform="translate(1109,1030)" d="m0 0 5 1 2 2-5 8-2-1 3-5v-2z" fill="#D7CEE7"/>
<path transform="translate(831,1026)" d="m0 0h5l-1 6h-5z" fill="#457978"/>
<path transform="translate(598,998)" d="m0 0h2v2l2 1-2 2h-6v-3z" fill="#AAD1EB"/>
<path transform="translate(1010,938)" d="m0 0 5 2-1 5-3 4-2-1 3-6-3-3z" fill="#D9CEEB"/>
<path transform="translate(973,888)" d="m0 0 2 3h2v2h-2v4h-2l-3-4z" fill="#4A7F7F"/>
<path transform="translate(1010,867)" d="m0 0 4 1 1 4-4 6-2-1 4-7-4-2z" fill="#D6CDE8"/>
<path transform="translate(410,774)" d="m0 0h3v4l-7 3 2-6z" fill="#BA9FDE"/>
<path transform="translate(433,511)" d="m0 0 6 1 1 1v7l-4 2 1-8z" fill="#75CCD0"/>
<path transform="translate(854,1205)" d="m0 0v3l-2 4 3 4-5-1-1-3z" fill="#DED5ED"/>
<path transform="translate(844,1161)" d="m0 0 1 3-4 2-1 2 2 1-4 3 1-8z" fill="#60BFBC"/>
<path transform="translate(874,1030)" d="m0 0v3l-2 4 3 3h-4l-2-1 2-6z" fill="#DCD3ED"/>
<path transform="translate(949,949)" d="m0 0 4 2-3 1v2l3-1 1-2 2 1-4 4-4-1z" fill="#62C2C1"/>
<path transform="translate(943,947)" d="m0 0h3l1 7-2 5-2-2 2-7-3-1z" fill="#61C0BD"/>
<path transform="translate(418,449)" d="m0 0 5 1 2 3-2 4-2-5-7 1z" fill="#79C5D7"/>
<path transform="translate(901,375)" d="m0 0 5 1v3l-6-1v9h-1v-10z" fill="#5D7C86"/>
<path transform="translate(839,311)" d="m0 0 6 1 3 3v2l-4-2-6-1z" fill="#7DCCD2"/>
</svg>
