<svg version="1.1" id="Layer_1" xmlns="http://www.w3.org/2000/svg" xmlns:xlink="http://www.w3.org/1999/xlink" x="0px" y="0px"
	 width="40" viewBox="0 0 1919 1080" enable-background="new 0 0 1919 1080" xml:space="preserve">
<path fill="#F2F2F2" opacity="1.000000" stroke="none" 
	d="
M1107.000000,1081.000000 
	C738.000000,1081.000000 369.500000,1081.000000 1.000000,1081.000000 
	C1.000000,721.000000 1.000000,361.000000 1.000000,1.000000 
	C640.666687,1.000000 1280.333374,1.000000 1920.000000,1.000000 
	C1920.000000,361.000000 1920.000000,721.000000 1920.000000,1081.000000 
	C1649.166626,1081.000000 1378.333374,1081.000000 1107.000000,1081.000000 
M1270.663086,415.498932 
	C1271.454346,412.043457 1272.245605,408.587952 1273.317017,403.908661 
	C1265.999756,408.319305 1259.799927,412.056427 1253.424194,415.899536 
	C1249.800537,410.435089 1246.352661,405.235657 1242.947876,399.326782 
	C1234.002197,384.867828 1225.056641,370.408875 1215.967407,355.256866 
	C1211.751587,348.671204 1207.535645,342.085541 1203.216553,334.818817 
	C1192.684937,317.511780 1182.227539,300.158875 1171.587158,282.918915 
	C1166.983398,275.459686 1162.002075,268.233459 1157.117676,260.170044 
	C1151.357544,250.411453 1145.597412,240.652847 1139.587158,230.470428 
	C1126.369507,238.597168 1113.798584,246.268387 1101.348389,254.130569 
	C1100.632080,254.582870 1100.285278,256.957245 1100.800781,257.816925 
	C1106.078491,266.618134 1111.570312,275.290924 1117.218872,284.657501 
	C1123.100464,294.299927 1128.939331,303.968750 1134.873413,313.578827 
	C1144.465576,329.113068 1154.120239,344.608673 1163.956299,360.794800 
	C1168.233154,367.582947 1172.510132,374.371094 1176.971436,381.839935 
	C1185.642090,395.914612 1194.312622,409.989288 1203.209229,424.711639 
	C1206.329224,429.954956 1209.449341,435.198242 1212.807739,440.842133 
	C1206.305786,444.907715 1200.130005,448.769409 1192.845459,453.324371 
	C1198.536621,454.572510 1202.701172,455.485809 1207.461670,456.845154 
	C1224.137085,460.794434 1240.812500,464.743713 1258.166382,468.853668 
	C1262.205200,451.082245 1266.185425,433.568512 1270.663086,415.498932 
M1247.013428,849.875000 
	C1393.037476,849.875000 1539.061523,849.875000 1685.085693,849.875000 
	C1677.449097,849.496277 1669.836914,848.274048 1662.243042,846.947998 
	C1614.281860,838.573242 1566.100220,831.264038 1518.438232,821.435791 
	C1481.285645,813.774780 1444.781006,802.971313 1407.271606,792.953613 
	C1405.535889,792.273071 1403.800049,791.592529 1401.644531,790.415710 
	C1400.819214,790.173157 1399.993896,789.930603 1399.075806,789.903564 
	C1399.075806,789.903564 1399.213989,789.713928 1398.853394,789.145325 
	C1388.014160,781.735107 1376.741943,774.878601 1366.418945,766.808044 
	C1338.658325,745.104431 1314.466553,719.585571 1290.478638,693.911255 
	C1259.342285,660.585876 1228.689087,626.801636 1197.174805,593.839172 
	C1169.760742,565.165466 1140.674561,538.280212 1105.830200,517.573425 
	C1105.546509,517.327637 1105.262695,517.081848 1104.824707,516.373840 
	C1104.621948,516.084534 1104.344116,515.933655 1104.000244,515.992126 
	C1104.000244,515.992126 1104.071045,515.981201 1104.118774,515.245728 
	C1080.653076,468.607605 1058.552368,421.233551 1030.599243,376.995026 
	C1017.469482,356.215912 1003.180115,336.330444 983.072144,321.457367 
	C969.196289,311.194000 953.883728,307.222626 936.941650,311.129150 
	C925.817749,313.694122 916.390686,319.866821 908.116089,327.365784 
	C895.499390,338.799896 884.407227,351.711700 874.675232,365.714844 
	C854.945984,394.102539 838.350159,424.354462 822.072876,454.781616 
	C802.963013,490.503937 784.416443,526.534729 764.847168,562.002197 
	C743.184998,601.262817 720.038818,639.617249 690.097595,673.387878 
	C677.369263,687.744263 663.676758,700.965149 647.860535,711.909241 
	C623.059448,729.070374 596.243225,742.496399 568.501831,754.043518 
	C526.885254,771.366150 484.028900,785.188843 440.230286,795.651367 
	C395.597107,806.313354 350.640625,815.641052 305.750336,825.198853 
	C286.646942,829.266235 267.335236,832.346680 248.148651,836.034180 
	C229.991867,839.523743 211.875000,843.221069 193.740555,846.827026 
	C193.788528,847.313049 193.836487,847.799133 193.884445,848.285156 
	C295.021301,848.285156 396.158142,848.285156 497.997345,848.588562 
	C505.820435,848.686523 513.643494,848.865051 521.466614,848.870483 
	C637.680176,848.951294 753.893738,849.009155 870.823486,849.374878 
	C872.484436,849.443420 874.145264,849.569153 875.806335,849.572327 
	C978.087524,849.767944 1080.368652,849.974121 1182.649902,850.122986 
	C1203.795532,850.153809 1224.941406,849.967773 1247.013428,849.875000 
z"/>
<path fill="#58619E" opacity="1.000000" stroke="none" 
	d="
M870.107300,849.072388 
	C753.893738,849.009155 637.680176,848.951294 521.466614,848.870483 
	C513.643494,848.865051 505.820435,848.686523 498.070312,848.352173 
	C511.253387,847.776733 524.386292,847.807617 537.467773,847.003296 
	C553.145630,846.039307 568.845276,844.878906 584.420105,842.896606 
	C628.309814,837.310425 670.245422,825.031677 710.042847,805.468811 
	C734.528076,793.432922 757.793945,779.587097 776.741150,759.754395 
	C792.533142,743.224365 808.003052,726.296753 822.456421,708.598633 
	C844.603027,681.480103 865.402771,653.264160 887.436584,626.050354 
	C905.453796,603.797363 923.814026,581.753296 943.187622,560.688477 
	C959.429016,543.029358 977.841614,527.602234 998.774719,515.353821 
	C1027.240967,498.697632 1056.461426,495.930084 1086.966797,508.967163 
	C1092.632568,511.388580 1098.367798,513.647400 1104.071045,515.981201 
	C1104.071045,515.981201 1104.000244,515.992126 1104.022217,516.214417 
	C1104.355835,516.569824 1104.667480,516.702942 1104.979004,516.836060 
	C1105.262695,517.081848 1105.546509,517.327637 1105.983643,518.171448 
	C1116.283203,538.228271 1126.270508,557.771912 1136.614624,577.124939 
	C1150.486450,603.078308 1165.604004,628.281067 1183.025635,652.048401 
	C1196.303955,670.163391 1210.327759,687.671997 1227.735474,702.015747 
	C1250.512817,720.784058 1275.380737,736.617920 1301.785034,749.598511 
	C1326.210938,761.606628 1351.487915,771.907837 1376.558350,782.565247 
	C1383.812378,785.648987 1391.645996,787.368835 1399.213989,789.713928 
	C1399.213989,789.713928 1399.075806,789.903564 1399.250732,790.123657 
	C1400.305176,790.533264 1401.184814,790.722656 1402.064331,790.912048 
	C1403.800049,791.592529 1405.535889,792.273071 1407.803955,793.143921 
	C1481.273926,834.284119 1560.892700,846.830627 1643.059326,849.053650 
	C1510.591553,849.053650 1378.123779,849.053650 1245.224365,849.015991 
	C1121.060547,848.959106 997.328491,848.939453 873.596375,848.926941 
	C872.433350,848.926819 871.270325,849.021790 870.107300,849.072388 
z"/>
<path fill="#EB0701" opacity="1.000000" stroke="none" 
	d="
M1104.094971,515.613464 
	C1098.367798,513.647400 1092.632568,511.388580 1086.966797,508.967163 
	C1056.461426,495.930084 1027.240967,498.697632 998.774719,515.353821 
	C977.841614,527.602234 959.429016,543.029358 943.187622,560.688477 
	C923.814026,581.753296 905.453796,603.797363 887.436584,626.050354 
	C865.402771,653.264160 844.603027,681.480103 822.456421,708.598633 
	C808.003052,726.296753 792.533142,743.224365 776.741150,759.754395 
	C757.793945,779.587097 734.528076,793.432922 710.042847,805.468811 
	C670.245422,825.031677 628.309814,837.310425 584.420105,842.896606 
	C568.845276,844.878906 553.145630,846.039307 537.467773,847.003296 
	C524.386292,847.807617 511.253387,847.776733 497.719116,848.200439 
	C396.158142,848.285156 295.021301,848.285156 193.884445,848.285156 
	C193.836487,847.799133 193.788528,847.313049 193.740555,846.827026 
	C211.875000,843.221069 229.991867,839.523743 248.148651,836.034180 
	C267.335236,832.346680 286.646942,829.266235 305.750336,825.198853 
	C350.640625,815.641052 395.597107,806.313354 440.230286,795.651367 
	C484.028900,785.188843 526.885254,771.366150 568.501831,754.043518 
	C596.243225,742.496399 623.059448,729.070374 647.860535,711.909241 
	C663.676758,700.965149 677.369263,687.744263 690.097595,673.387878 
	C720.038818,639.617249 743.184998,601.262817 764.847168,562.002197 
	C784.416443,526.534729 802.963013,490.503937 822.072876,454.781616 
	C838.350159,424.354462 854.945984,394.102539 874.675232,365.714844 
	C884.407227,351.711700 895.499390,338.799896 908.116089,327.365784 
	C916.390686,319.866821 925.817749,313.694122 936.941650,311.129150 
	C953.883728,307.222626 969.196289,311.194000 983.072144,321.457367 
	C1003.180115,336.330444 1017.469482,356.215912 1030.599243,376.995026 
	C1058.552368,421.233551 1080.653076,468.607605 1104.094971,515.613464 
z"/>
<path fill="#518BCA" opacity="1.000000" stroke="none" 
	d="
M1399.033691,789.429626 
	C1391.645996,787.368835 1383.812378,785.648987 1376.558350,782.565247 
	C1351.487915,771.907837 1326.210938,761.606628 1301.785034,749.598511 
	C1275.380737,736.617920 1250.512817,720.784058 1227.735474,702.015747 
	C1210.327759,687.671997 1196.303955,670.163391 1183.025635,652.048401 
	C1165.604004,628.281067 1150.486450,603.078308 1136.614624,577.124939 
	C1126.270508,557.771912 1116.283203,538.228271 1106.135010,518.417603 
	C1140.674561,538.280212 1169.760742,565.165466 1197.174805,593.839172 
	C1228.689087,626.801636 1259.342285,660.585876 1290.478638,693.911255 
	C1314.466553,719.585571 1338.658325,745.104431 1366.418945,766.808044 
	C1376.741943,774.878601 1388.014160,781.735107 1399.033691,789.429626 
z"/>
<path fill="#FE8785" opacity="1.000000" stroke="none" 
	d="
M1163.748413,360.120667 
	C1154.120239,344.608673 1144.465576,329.113068 1134.873413,313.578827 
	C1128.939331,303.968750 1123.100464,294.299927 1117.426025,284.186462 
	C1125.117676,279.251099 1132.560181,274.714050 1140.100708,270.346558 
	C1145.732178,267.084747 1151.490356,264.041809 1157.192139,260.901398 
	C1162.002075,268.233459 1166.983398,275.459686 1171.587158,282.918915 
	C1182.227539,300.158875 1192.684937,317.511780 1203.061279,335.485565 
	C1197.770874,339.437225 1192.692871,342.816040 1187.487305,345.985077 
	C1179.621094,350.773682 1171.665771,355.416107 1163.748413,360.120667 
z"/>
<path fill="#EB0701" opacity="1.000000" stroke="none" 
	d="
M1245.656006,849.053650 
	C1378.123779,849.053650 1510.591553,849.053650 1643.059326,849.053650 
	C1560.892700,846.830627 1481.273926,834.284119 1408.162354,793.449280 
	C1444.781006,802.971313 1481.285645,813.774780 1518.438232,821.435791 
	C1566.100220,831.264038 1614.281860,838.573242 1662.243042,846.947998 
	C1669.836914,848.274048 1677.449097,849.496277 1685.085693,849.875000 
	C1539.061523,849.875000 1393.037476,849.875000 1246.436523,849.674438 
	C1245.859741,849.473938 1245.656006,849.053650 1245.656006,849.053650 
z"/>
<path fill="#A47D9D" opacity="1.000000" stroke="none" 
	d="
M1202.983276,424.063965 
	C1194.312622,409.989288 1185.642090,395.914612 1177.212646,381.349304 
	C1185.750610,375.717316 1194.096802,370.653595 1202.324707,365.404449 
	C1207.019775,362.409088 1211.522095,359.111481 1216.111084,355.949951 
	C1225.056641,370.408875 1234.002197,384.867828 1242.559692,399.676880 
	C1241.076050,400.375092 1239.858887,400.522980 1238.904053,401.102722 
	C1230.544067,406.178650 1222.190918,411.268372 1213.921753,416.490326 
	C1210.175415,418.856171 1206.623413,421.529877 1202.983276,424.063965 
z"/>
<path fill="#6478AF" opacity="1.000000" stroke="none" 
	d="
M1203.096191,424.387817 
	C1206.623413,421.529877 1210.175415,418.856171 1213.921753,416.490326 
	C1222.190918,411.268372 1230.544067,406.178650 1238.904053,401.102722 
	C1239.858887,400.522980 1241.076050,400.375092 1242.538086,400.031555 
	C1246.352661,405.235657 1249.800537,410.435089 1253.424194,415.899536 
	C1259.799927,412.056427 1265.999756,408.319305 1273.317017,403.908661 
	C1272.245605,408.587952 1271.454346,412.043457 1270.051025,415.794556 
	C1249.648315,428.172150 1229.838623,440.223602 1210.107422,452.402130 
	C1208.729492,453.252625 1207.932617,455.044830 1206.865601,456.399139 
	C1202.701172,455.485809 1198.536621,454.572510 1192.845459,453.324371 
	C1200.130005,448.769409 1206.305786,444.907715 1212.807739,440.842133 
	C1209.449341,435.198242 1206.329224,429.954956 1203.096191,424.387817 
z"/>
<path fill="#FF9796" opacity="1.000000" stroke="none" 
	d="
M1157.154907,260.535736 
	C1151.490356,264.041809 1145.732178,267.084747 1140.100708,270.346558 
	C1132.560181,274.714050 1125.117676,279.251099 1117.317749,283.857483 
	C1111.570312,275.290924 1106.078491,266.618134 1100.800781,257.816925 
	C1100.285278,256.957245 1100.632080,254.582870 1101.348389,254.130569 
	C1113.798584,246.268387 1126.369507,238.597168 1139.587158,230.470428 
	C1145.597412,240.652847 1151.357544,250.411453 1157.154907,260.535736 
z"/>
<path fill="#5075B4" opacity="1.000000" stroke="none" 
	d="
M1207.163574,456.622131 
	C1207.932617,455.044830 1208.729492,453.252625 1210.107422,452.402130 
	C1229.838623,440.223602 1249.648315,428.172150 1269.802368,416.072449 
	C1266.185425,433.568512 1262.205200,451.082245 1258.166382,468.853668 
	C1240.812500,464.743713 1224.137085,460.794434 1207.163574,456.622131 
z"/>
<path fill="#DD838D" opacity="1.000000" stroke="none" 
	d="
M1216.039307,355.603394 
	C1211.522095,359.111481 1207.019775,362.409088 1202.324707,365.404449 
	C1194.096802,370.653595 1185.750610,375.717316 1177.120605,381.008972 
	C1172.510132,374.371094 1168.233154,367.582947 1163.852295,360.457733 
	C1171.665771,355.416107 1179.621094,350.773682 1187.487305,345.985077 
	C1192.692871,342.816040 1197.770874,339.437225 1203.112793,335.826111 
	C1207.535645,342.085541 1211.751587,348.671204 1216.039307,355.603394 
z"/>
<path fill="#FE8785" opacity="1.000000" stroke="none" 
	d="
M1245.224365,849.015991 
	C1245.656006,849.053650 1245.859741,849.473938 1245.973389,849.677795 
	C1224.941406,849.967773 1203.795532,850.153809 1182.649902,850.122986 
	C1080.368652,849.974121 978.087524,849.767944 875.806335,849.572327 
	C874.145264,849.569153 872.484436,849.443420 870.465393,849.223633 
	C871.270325,849.021790 872.433350,848.926819 873.596375,848.926941 
	C997.328491,848.939453 1121.060547,848.959106 1245.224365,849.015991 
z"/>
<path fill="#518BCA" opacity="1.000000" stroke="none" 
	d="
M1401.854492,790.663879 
	C1401.184814,790.722656 1400.305176,790.533264 1399.297119,790.015930 
	C1399.993896,789.930603 1400.819214,790.173157 1401.854492,790.663879 
z"/>
<path fill="#EB0701" opacity="1.000000" stroke="none" 
	d="
M1104.901855,516.604980 
	C1104.667480,516.702942 1104.355835,516.569824 1104.017578,516.178955 
	C1104.344116,515.933655 1104.621948,516.084534 1104.901855,516.604980 
z"/>
</svg>