<?xml version="1.0" encoding="UTF-8"?>
<svg version="1.1" viewBox="0 0 1919 1080" width="3000" height="1080" xmlns="http://www.w3.org/2000/svg">
<path transform="translate(0)" d="m0 0h1919v1080h-1919z" fill="#F1F0F0"/>
<path transform="translate(940,309)" d="m0 0h18l12 4 12 7 11 9 10 10 11 14 11 15 13 21 12 21 14 26 21 41 19 38 10 7 12 8 12 9 11 9 14 12 16 15 35 35 7 8 8 8 7 8 15 16 9 10 22 24 12 13 16 17 28 28 8 7 10 9 14 11 17 12 14 8 5 3 49 14 41 10 48 10 68 12 63 10 4 2-1176-2-309-1 3-2 39-8 90-17 53-11 47-11 42-11 39-12 38-13 32-13 28-13 22-12 20-13 12-9 10-9 8-7 14-15 9-11 16-21 8-12 13-20 15-25 16-28 15-28 18-34 14-27 12-22 13-24 16-27 12-19 13-18 11-13 9-10 13-11 14-8z" fill="#58609D"/>
<path transform="translate(940,309)" d="m0 0h18l12 4 12 7 11 9 10 10 11 14 11 15 13 21 12 21 14 26 21 41 19 38-2 1-17-8-15-5-10-2h-23l-17 4-16 7-16 9-12 9-11 9-12 11-22 22-7 8-13 15-9 11-13 16-10 13-14 18-10 13-14 18-11 14-13 16-11 13-9 10-7 8-25 25-14 11-14 9-16 9-16 8-17 8-27 10-27 8-28 6-26 4-30 3-17 1h-339l3-2 39-8 90-17 53-11 47-11 42-11 39-12 38-13 32-13 28-13 22-12 20-13 12-9 10-9 8-7 14-15 9-11 16-21 8-12 13-20 15-25 16-28 15-28 18-34 14-27 12-22 13-24 16-27 12-19 13-18 11-13 9-10 13-11 14-8z" fill="#EA0600"/>
<path transform="translate(1105,518)" d="m0 0 4 1 16 10 13 10 11 9 14 12 16 15 35 35 7 8 8 8 7 8 15 16 9 10 22 24 12 13 16 17 28 28 8 7 10 9 14 11 17 12 15 9-2 1-28-10-25-10-25-11-30-15-22-13-20-13-18-13-14-12-12-12-9-11-10-12-13-18-11-17-13-21-13-23-14-26-15-29z" fill="#518BCB"/>
<path transform="translate(1137,230)" d="m0 0 3 1 14 23 13 21 14 23 13 21 14 23 17 28 26 42 2 2 18-11 1 4-14 59-1 2-18-4-46-11v-2l18-11-8-14-15-25-12-19-13-21-16-26-14-23-13-21-17-28-5-9 21-13z" fill="#FF8683"/>
<path transform="translate(1228,379)" d="m0 0 4 2 12 20 8 13 11-6 9-5-1 8-13 55-1 2-18-4-46-11v-2l18-11-8-14-13-22v-2l28-17z" fill="#57619E"/>
<path transform="translate(1410,794)" d="m0 0 10 2 35 10 41 10 48 10 68 12 63 10 4 2-524-1v-1l464-1-41-3-37-5-37-8-27-8-28-10-27-12-12-6z" fill="#EA0600"/>
<path transform="translate(1267,422)" d="m0 0 1 2-10 42-1 2-18-4-25-6-2-2 9-7 10-6 7-4 13-8 11-7z" fill="#518BCB"/>
</svg>
